<svg width="78" height="42" viewBox="0 0 78 42" fill="none" xmlns="http://www.w3.org/2000/svg">
<path d="M6.53809 20.6992C7.45433 20.6992 8.2972 20.8786 9.07129 21.2393C9.84532 21.5999 10.4803 22.0448 10.9727 22.5713C11.4651 23.1006 11.8314 23.6646 12.0684 24.2676C12.3053 24.8705 12.4551 25.5815 12.5156 26.4004H8.74023C8.62439 25.6606 8.44473 25.142 8.19727 24.8418C7.81809 24.3836 7.27315 24.1543 6.55957 24.1543C5.91707 24.1543 5.40105 24.3467 5.0166 24.7285C4.62956 25.1103 4.43457 25.6104 4.43457 26.2266C4.43457 26.8954 4.66389 27.4251 5.12207 27.8096C5.46455 28.0991 6.20442 28.436 7.33887 28.8203C8.47358 29.2021 9.29264 29.5309 9.79297 29.8047C10.5592 30.2181 11.1624 30.6821 11.6074 31.1982C12.0524 31.7117 12.3945 32.3122 12.6367 32.9941C12.8789 33.6761 13 34.4342 13 35.2715C13 37.3754 12.1996 39.0236 10.5986 40.2217C9.44529 41.0854 8.11272 41.5146 6.59863 41.5146C5.82464 41.5146 5.07427 41.3913 4.34766 41.1465C3.62102 40.9016 2.97584 40.5594 2.41504 40.125C1.85153 39.6905 1.39318 39.208 1.04297 38.6787C0.69025 38.1522 0.43218 37.5916 0.263672 37.002C0.139912 36.5701 0.0526641 36.03 0 35.377L3.90039 35.374C3.98727 36.1033 4.19505 36.6774 4.52148 37.0908C5.01389 37.7333 5.7143 38.0547 6.62012 38.0547C7.41265 38.0547 8.05762 37.8046 8.56055 37.3018C9.06343 36.7989 9.31342 36.1723 9.31348 35.4141C9.31348 34.8769 9.19822 34.4313 8.96387 34.0811C8.72951 33.7283 8.35746 33.4174 7.84668 33.1436C7.57209 32.9932 6.6134 32.5981 4.96875 31.9561C3.85256 31.5243 3.01805 31.0715 2.46777 30.5977C1.91751 30.1237 1.48776 29.5289 1.17969 28.8154C0.871603 28.1018 0.716797 27.3269 0.716797 26.4922C0.716849 25.4285 0.971633 24.4434 1.48242 23.543C1.99326 22.6399 2.70733 21.942 3.62891 21.4443C4.54771 20.9468 5.51663 20.6993 6.53809 20.6992ZM34.498 20.6943C35.9936 20.6944 37.384 20.9839 38.6689 21.5605C39.9539 22.1372 41.0285 22.8663 41.8975 23.751C42.7638 24.6357 43.4431 25.5973 43.9355 26.6348C44.6122 28.0435 44.9512 29.5396 44.9512 31.1221C44.9511 32.3016 44.7703 33.4157 44.4043 34.4609C44.0383 35.5088 43.5534 36.4326 42.9531 37.2383C42.3501 38.044 41.6281 38.7708 40.7881 39.4238C39.9481 40.0768 38.9769 40.5858 37.8789 40.957C36.7782 41.3257 35.6507 41.5127 34.5 41.5127C32.9334 41.5126 31.5117 41.2145 30.2373 40.6221C28.9603 40.027 27.8914 39.2899 27.0225 38.4053C26.1561 37.5205 25.4847 36.5669 25.0107 35.5479C24.3577 34.1391 24.0332 32.6753 24.0332 31.1533L24.043 30.6299C24.0999 29.4265 24.3566 28.2695 24.8105 27.1611C25.3292 25.8948 26.0426 24.8023 26.9482 23.8887C27.854 22.975 28.8574 22.2503 29.958 21.7236C31.3826 21.0364 32.8971 20.6943 34.498 20.6943ZM24.3994 24.5625H20.665V41.1016H16.9688V24.5625H13.2578V21.0918H24.3994V24.5625ZM59.4473 35.6377H59.5V21.0918H63.21V41.1016H59.0791L50.7207 26.5557H50.6689V41.1016H46.9609V21.0918H51.1719L59.4473 35.6377ZM76.2227 24.5625H69.1738V29.4473H75.9336V32.9043H69.1738V37.6445H76.2227V41.1016H65.4658V21.0918H76.2227V24.5625ZM34.4951 24.1514C33.4735 24.1514 32.5626 24.3469 31.7568 24.7393C30.9512 25.1315 30.2507 25.634 29.6504 26.25C29.0527 26.8662 28.5838 27.6042 28.2441 28.46C27.9045 29.3183 27.7354 30.2055 27.7354 31.1191L27.749 31.4785C27.7876 32.3032 27.9612 33.0794 28.2676 33.8027C28.6204 34.6294 29.0836 35.3485 29.6602 35.9541C30.2367 36.5596 30.9374 37.0621 31.7588 37.457C32.5803 37.852 33.4948 38.0527 34.498 38.0527C35.6592 38.0527 36.7732 37.7498 37.8369 37.1416C38.9007 36.5333 39.7381 35.6798 40.3438 34.5791C40.952 33.4785 41.2549 32.3223 41.2549 31.1084C41.2549 29.8945 40.952 28.7358 40.3438 27.6299C39.7355 26.5266 38.903 25.6681 37.8418 25.0625C36.7807 24.4569 35.6668 24.1514 34.4951 24.1514ZM67.7109 0C68.8535 2.54363e-05 69.9119 0.170792 70.8887 0.515625C71.8655 0.860545 72.7504 1.33232 73.543 1.93262C74.3356 2.53299 75.0102 3.20186 75.5605 3.93652C75.9317 4.43147 76.2661 5.0423 76.5557 5.77148H72.4746C71.9559 5.00269 71.2685 4.37863 70.4102 3.89941C69.5518 3.42282 68.6087 3.18361 67.5791 3.18359C66.381 3.18359 65.2959 3.4702 64.3242 4.04688C63.3526 4.6209 62.5942 5.42681 62.0518 6.45898C61.5093 7.4912 61.2383 8.53941 61.2383 9.60059C61.2383 10.6618 61.5147 11.7179 62.0703 12.7422C62.6259 13.7664 63.3979 14.5611 64.3906 15.1299C65.3833 15.696 66.4653 15.9805 67.6396 15.9805C68.5955 15.9805 69.4516 15.804 70.21 15.4512C70.9681 15.0984 71.613 14.6399 72.1475 14.0713C72.5108 13.6816 72.8559 13.1892 73.1797 12.5889H65.4648L65.4668 12.584V9.40039H77.4824C77.4903 10.6801 77.3008 11.8601 76.9111 12.9424C76.5214 14.0245 75.8681 15.0595 74.9492 16.0469C74.0304 17.0341 72.9509 17.8004 71.7109 18.3428C70.4707 18.8852 69.0769 19.1562 67.5312 19.1562C65.9857 19.1562 64.6798 18.8905 63.5713 18.3613C62.4627 17.8294 61.4862 17.1364 60.6436 16.2832C59.801 15.4275 59.1531 14.5327 58.7002 13.5928C58.1183 12.3604 57.8252 11.0406 57.8252 9.63184C57.8252 8.5708 57.9867 7.55993 58.3105 6.60156C58.6344 5.64044 59.0874 4.77671 59.6641 4.00781C60.2434 3.23896 60.941 2.54358 61.752 1.9248C62.5656 1.30605 63.4925 0.829812 64.5352 0.498047C65.5753 0.166264 66.634 0 67.7109 0ZM4.9043 15.5967H10.5156V18.7803H1.48926V0.360352H4.9043V15.5967ZM15.2646 18.7803H11.8516V0.360352H15.2646V18.7803ZM25.3008 14.3828H25.3643L30.3066 0.360352H33.8906L26.7461 18.7803H23.9658L16.7979 0.360352H20.3818L25.3008 14.3828ZM38.8486 18.7803H35.4336V0.360352H38.8486V18.7803ZM52.6748 13.751H52.7217V0.360352H56.1377V18.7803H52.332L44.6436 5.39258H44.5938V18.7803H41.1807V0.360352H45.0566L52.6748 13.751Z" fill="#26252D"/>
</svg>
