<svg xmlns="http://www.w3.org/2000/svg" width="134" height="34" viewBox="0 0 134 34" fill="none" id="Logo"><g id="logomark"><path d="M15.4508 6.6499V2.3999H2.05078V31.5999H15.4508V27.3499C12.7058 27.3499 10.0732 26.2594 8.13222 24.3184C6.19122 22.3774 5.10078 19.7449 5.10078 16.9999C5.10078 14.2549 6.19122 11.6223 8.13222 9.68135C10.0732 7.74035 12.7058 6.6499 15.4508 6.6499Z" fill="#394149"></path><path d="M15.4492 6.6499V27.3499C18.1942 27.3499 20.8268 26.2594 22.7678 24.3184C24.7088 22.3774 25.7992 19.7449 25.7992 16.9999C25.7992 14.2549 24.7088 11.6223 22.7678 9.68135C20.8268 7.74035 18.1942 6.6499 15.4492 6.6499Z" fill="#394149"></path></g><g id="logotype"><path d="M33.3203 9.25H36.3203V23.7H33.3203V9.25Z" fill="#394149"></path><path d="M38.0005 18.7499C38.0005 17.7103 38.3092 16.6941 38.8874 15.8301C39.4656 14.9661 40.2873 14.2932 41.2484 13.8967C42.2095 13.5003 43.2666 13.3981 44.2858 13.6031C45.305 13.8081 46.2404 14.3111 46.9734 15.0483C47.7064 15.7856 48.2041 16.7238 48.4033 17.7442C48.6024 18.7646 48.4942 19.8211 48.0922 20.7799C47.6902 21.7386 47.0127 22.5565 46.1454 23.1297C45.2781 23.703 44.2601 24.0058 43.2205 23.9999C42.531 24.0053 41.8473 23.873 41.2096 23.6106C40.5719 23.3483 39.9929 22.9613 39.5067 22.4724C39.0205 21.9834 38.6369 21.4022 38.3782 20.763C38.1196 20.1238 37.9912 19.4394 38.0005 18.7499ZM45.5205 18.7499C45.5087 18.3017 45.365 17.8669 45.1074 17.5C44.8498 17.133 44.4898 16.8501 44.0722 16.6867C43.6547 16.5233 43.1983 16.4866 42.7601 16.5813C42.3218 16.6759 41.9212 16.8976 41.6083 17.2188C41.2954 17.5399 41.0841 17.9461 41.0009 18.3867C40.9177 18.8273 40.9662 19.2826 41.1404 19.6957C41.3146 20.1088 41.6067 20.4615 41.9803 20.7094C42.3538 20.9574 42.7921 21.0897 43.2405 21.0899C43.5458 21.0959 43.849 21.0388 44.1312 20.9222C44.4134 20.8057 44.6685 20.6322 44.8806 20.4126C45.0927 20.193 45.2572 19.9319 45.3639 19.6459C45.4706 19.3598 45.5171 19.0548 45.5005 18.7499H45.5205Z" fill="#394149"></path><path d="M60.3093 13.8001V23.2101C60.3093 26.5301 57.7093 27.9401 55.0793 27.9401C54.1516 28.0162 53.2211 27.8319 52.3926 27.4079C51.564 26.9839 50.8702 26.337 50.3893 25.5401L52.9193 24.0801C53.1243 24.4935 53.4504 24.8345 53.8542 25.0578C54.258 25.2811 54.7202 25.3761 55.1793 25.3301C55.4718 25.3661 55.7686 25.3371 56.0485 25.2451C56.3285 25.153 56.5846 25.0003 56.7986 24.7977C57.0127 24.5951 57.1793 24.3478 57.2866 24.0733C57.3939 23.7989 57.4392 23.5041 57.4193 23.2101V22.3001C57.0702 22.7234 56.6272 23.0594 56.1256 23.2816C55.6239 23.5038 55.0774 23.606 54.5293 23.5801C53.2032 23.5801 51.9315 23.0533 50.9938 22.1156C50.0561 21.178 49.5293 19.9062 49.5293 18.5801C49.5293 17.254 50.0561 15.9823 50.9938 15.0446C51.9315 14.1069 53.2032 13.5801 54.5293 13.5801C55.0774 13.5542 55.6239 13.6564 56.1256 13.8786C56.6272 14.1008 57.0702 14.4368 57.4193 14.8601V13.8601L60.3093 13.8001ZM57.4193 18.5501C57.4392 18.0717 57.3156 17.5982 57.0643 17.1906C56.813 16.783 56.4456 16.4599 56.0091 16.2628C55.5727 16.0657 55.0874 16.0037 54.6154 16.0847C54.1435 16.1657 53.7065 16.386 53.3608 16.7173C53.0151 17.0486 52.7764 17.4758 52.6754 17.9439C52.5744 18.412 52.6157 18.8995 52.794 19.3439C52.9724 19.7883 53.2796 20.1692 53.6761 20.4376C54.0727 20.706 54.5405 20.8497 55.0193 20.8501C55.3318 20.8726 55.6455 20.8293 55.9401 20.7231C56.2348 20.6168 56.504 20.4499 56.7301 20.2331C56.9563 20.0164 57.1345 19.7546 57.2532 19.4647C57.3719 19.1748 57.4285 18.8632 57.4193 18.5501Z" fill="#394149"></path><path d="M62.0003 18.75C62.0003 17.7112 62.3085 16.6958 62.8858 15.8322C63.4631 14.9686 64.2837 14.2957 65.2436 13.8987C66.2035 13.5016 67.2595 13.3982 68.2782 13.6016C69.2969 13.805 70.2323 14.306 70.9662 15.0412C71.7 15.7765 72.1992 16.7129 72.4006 17.7319C72.6021 18.751 72.4968 19.8069 72.0979 20.766C71.699 21.7252 71.0244 22.5444 70.1598 23.1201C69.2951 23.6958 68.2791 24.002 67.2403 24C66.5495 24.0067 65.8643 23.8754 65.2249 23.6138C64.5855 23.3522 64.0046 22.9656 63.5166 22.4766C63.0285 21.9876 62.643 21.4061 62.3826 20.7662C62.1223 20.1263 61.9923 19.4408 62.0003 18.75ZM69.5203 18.75C69.5085 18.3014 69.3645 17.8662 69.1065 17.499C68.8485 17.1319 68.4878 16.849 68.0697 16.6859C67.6516 16.5228 67.1947 16.4867 66.7562 16.5822C66.3177 16.6776 65.9171 16.9004 65.6046 17.2225C65.2921 17.5446 65.0816 17.9518 64.9996 18.393C64.9175 18.8342 64.9674 19.2898 65.1431 19.7027C65.3188 20.1157 65.6125 20.4676 65.9874 20.7144C66.3622 20.9611 66.8015 21.0918 67.2503 21.09C67.5556 21.096 67.8588 21.0389 68.141 20.9223C68.4232 20.8058 68.6783 20.6323 68.8904 20.4127C69.1025 20.1931 69.267 19.932 69.3737 19.646C69.4804 19.3599 69.527 19.0549 69.5104 18.75H69.5203Z" fill="#394149"></path><path d="M73.8691 11.1501C73.8691 10.7981 73.9735 10.4539 74.1691 10.1612C74.3647 9.86848 74.6427 9.64034 74.9679 9.50561C75.2932 9.37089 75.6511 9.33564 75.9964 9.40432C76.3416 9.473 76.6588 9.64253 76.9078 9.89147C77.1567 10.1404 77.3262 10.4576 77.3949 10.8028C77.4636 11.1481 77.4283 11.506 77.2936 11.8313C77.1589 12.1565 76.9307 12.4345 76.638 12.6301C76.3453 12.8257 76.0012 12.9301 75.6491 12.9301C75.1786 12.9249 74.7289 12.7357 74.3962 12.403C74.0635 12.0703 73.8743 11.6206 73.8691 11.1501ZM74.1591 13.8001H77.1591V23.7001H74.1591V13.8001Z" fill="#394149"></path><path d="M90.0005 18.7501C90.0341 19.4085 89.9372 20.0671 89.7153 20.6879C89.4935 21.3087 89.151 21.8795 88.7077 22.3674C88.2643 22.8554 87.7289 23.2508 87.1321 23.531C86.5354 23.8112 85.8891 23.9706 85.2305 24.0001C84.6716 24.0373 84.1115 23.9478 83.5921 23.7383C83.0726 23.5287 82.6072 23.2046 82.2305 22.7901V27.6801H79.2305V13.8001H82.2305V14.7301C82.6077 14.3168 83.0735 13.9942 83.593 13.7864C84.1125 13.5785 84.6723 13.4909 85.2305 13.5301C85.8865 13.5596 86.5302 13.7181 87.1249 13.9964C87.7196 14.2747 88.2537 14.6675 88.6966 15.1522C89.1396 15.6369 89.4827 16.2041 89.7064 16.8215C89.9301 17.4388 90.0301 18.0941 90.0005 18.7501ZM87.0005 18.7501C86.9887 18.2856 86.84 17.835 86.5732 17.4547C86.3064 17.0744 85.9332 16.7812 85.5005 16.6121C85.0678 16.4429 84.5948 16.4053 84.1407 16.5038C83.6867 16.6023 83.2719 16.8327 82.9482 17.166C82.6245 17.4993 82.4064 17.9207 82.3213 18.3775C82.2361 18.8342 82.2876 19.3059 82.4694 19.7335C82.6512 20.161 82.9551 20.5254 83.3431 20.781C83.7311 21.0366 84.1859 21.1719 84.6505 21.1701C84.9687 21.1836 85.2862 21.1297 85.5821 21.0119C85.8781 20.8941 86.1458 20.7151 86.3677 20.4866C86.5896 20.2581 86.7606 19.9852 86.8697 19.686C86.9788 19.3867 87.0233 19.0678 87.0005 18.7501Z" fill="#394149"></path><path d="M99.13 20.7302C99.13 23.0102 97.13 23.9802 95.01 23.9802C94.1453 24.058 93.2772 23.8747 92.5178 23.454C91.7584 23.0333 91.1426 22.3945 90.75 21.6202L93.33 20.1602C93.4322 20.517 93.6538 20.8279 93.9578 21.0409C94.2618 21.2539 94.6297 21.356 95 21.3302C95.71 21.3302 96.07 21.1102 96.07 20.7102C96.07 19.6202 91.2 20.2002 91.2 16.7702C91.2 14.6102 93.02 13.5302 95.08 13.5302C95.863 13.4951 96.641 13.6728 97.3311 14.0443C98.0213 14.4158 98.598 14.9673 99 15.6402L96.42 17.0002C96.306 16.7422 96.1198 16.5228 95.8838 16.3684C95.6477 16.214 95.372 16.1313 95.09 16.1302C94.57 16.1302 94.26 16.3302 94.26 16.6802C94.26 17.8202 99.13 17.0702 99.13 20.7302Z" fill="#394149"></path><path d="M110.001 13.7998V23.6998H107.001V22.7698C106.66 23.1815 106.227 23.5072 105.738 23.7209C105.248 23.9346 104.715 24.0301 104.181 23.9998C102.181 23.9998 100.471 22.5698 100.471 19.8998V13.7998H103.471V19.4498C103.447 19.686 103.475 19.9245 103.553 20.1489C103.631 20.3732 103.756 20.578 103.92 20.7492C104.085 20.9203 104.285 21.0537 104.506 21.1402C104.727 21.2266 104.964 21.264 105.201 21.2498C106.281 21.2498 107.041 20.6098 107.041 19.2498V13.7998H110.001Z" fill="#394149"></path><path d="M127.001 17.6202V23.7002H124.001V17.8802C124.001 16.8802 123.531 16.2602 122.581 16.2602C121.631 16.2602 121.031 16.9502 121.031 18.1202V23.7002H118.031V17.8802C118.031 16.8802 117.561 16.2602 116.611 16.2602C115.661 16.2602 115.061 16.9502 115.061 18.1202V23.7002H112.061V13.8002H115.061V14.7102C115.372 14.3082 115.777 13.9898 116.242 13.7838C116.706 13.5778 117.215 13.4906 117.721 13.5302C118.228 13.5037 118.734 13.6097 119.188 13.8376C119.642 14.0655 120.029 14.4076 120.311 14.8302C120.641 14.3886 121.077 14.0378 121.579 13.8105C122.08 13.5831 122.632 13.4867 123.181 13.5302C125.521 13.5302 127.001 15.1502 127.001 17.6202Z" fill="#394149"></path><path d="M129.52 13.7398C130.735 13.7398 131.72 12.7548 131.72 11.5398C131.72 10.3248 130.735 9.33984 129.52 9.33984C128.305 9.33984 127.32 10.3248 127.32 11.5398C127.32 12.7548 128.305 13.7398 129.52 13.7398Z" fill="#394149"></path></g></svg>