<svg xmlns="http://www.w3.org/2000/svg" width="132" height="35" viewBox="0 0 132 35" fill="none" id="Logo"><g id="logotype"><path d="M38.5098 11.2601H41.7198V24.2601H38.5098V11.2601ZM42.9998 19.3701C42.9998 16.1501 44.9998 14.2201 47.9998 14.2201C50.9998 14.2201 52.9998 16.1501 52.9998 19.3701C52.9998 22.5901 51.0698 24.5401 47.9998 24.5401C44.9298 24.5401 42.9998 22.6601 42.9998 19.3701ZM49.8198 19.3701C49.8198 17.6001 49.1298 16.5601 48.0298 16.5601C46.9298 16.5601 46.2498 17.5601 46.2498 19.3701C46.2498 21.1801 46.9298 22.1701 48.0298 22.1701C49.1298 22.1701 49.8398 21.1801 49.8398 19.3801L49.8198 19.3701ZM54.2798 24.9301H57.3798C57.5209 25.2638 57.7674 25.5423 58.0816 25.7228C58.3958 25.9034 58.7604 25.9762 59.1198 25.9301C60.3498 25.9301 60.9898 25.2701 60.9898 24.2901V22.4901H60.9998C60.7349 23.0506 60.3065 23.5177 59.7711 23.8301C59.2356 24.1425 58.6181 24.2854 57.9998 24.2401C55.6498 24.2401 54.0898 22.4501 54.0898 19.3701C54.0898 16.2901 55.5798 14.3701 58.0898 14.3701C58.7239 14.3362 59.353 14.4997 59.8902 14.8382C60.4275 15.1767 60.8466 15.6735 61.0898 16.2601H60.9998V14.4501H64.1798V24.1901C64.1798 26.5401 62.0998 28.0101 59.0398 28.0101C56.2598 28.0001 54.4798 26.7301 54.2998 24.9401L54.2798 24.9301ZM60.9998 19.3701C60.9998 17.8001 60.2798 16.8101 59.1398 16.8101C57.9998 16.8101 57.2998 17.8101 57.2998 19.3701C57.2998 20.9301 57.9898 21.8501 59.1398 21.8501C60.2898 21.8501 60.9998 21.0001 60.9998 19.3701ZM65.4498 19.3701C65.4498 16.1501 67.4498 14.2201 70.4498 14.2201C73.4498 14.2201 75.4498 16.1501 75.4498 19.3701C75.4498 22.5901 73.5098 24.5401 70.4498 24.5401C67.3898 24.5401 65.4698 22.6601 65.4698 19.3701H65.4498ZM72.2698 19.3701C72.2698 17.6001 71.5698 16.5601 70.4798 16.5601C69.3898 16.5601 68.6998 17.5601 68.6998 19.3701C68.6998 21.1801 69.3798 22.1701 70.4798 22.1701C71.5798 22.1701 72.2898 21.1801 72.2898 19.3801L72.2698 19.3701ZM76.7498 12.0801C76.7358 11.7531 76.82 11.4294 76.9915 11.1507C77.163 10.8719 77.414 10.6509 77.7122 10.516C78.0104 10.381 78.3421 10.3384 78.6647 10.3936C78.9873 10.4487 79.286 10.5991 79.5224 10.8254C79.7588 11.0518 79.9221 11.3436 79.9913 11.6635C80.0604 11.9834 80.0323 12.3167 79.9105 12.6204C79.7887 12.9242 79.5788 13.1846 79.3078 13.3681C79.0368 13.5516 78.7171 13.6498 78.3898 13.6501C78.1807 13.6554 77.9725 13.6191 77.7775 13.5434C77.5825 13.4676 77.4044 13.3538 77.2537 13.2087C77.103 13.0636 76.9826 12.89 76.8996 12.6979C76.8165 12.5059 76.7724 12.2993 76.7698 12.0901L76.7498 12.0801ZM76.7498 14.4401H79.9998V24.3001H76.7998L76.7498 14.4401ZM91.6898 19.3701C91.6898 22.5801 90.2498 24.4401 87.7998 24.4401C87.1726 24.4788 86.5486 24.324 86.0121 23.9968C85.4756 23.6695 85.0525 23.1855 84.7998 22.6101H84.7398V27.4701H81.5298V14.4701H84.7198V16.2301H84.7798C85.0238 15.6434 85.4428 15.1461 85.9796 14.8061C86.5165 14.4661 87.1451 14.2999 87.7798 14.3301C90.2998 14.3101 91.7498 16.1601 91.7498 19.3801L91.6898 19.3701ZM88.4198 19.3701C88.4198 17.8101 87.6898 16.8001 86.5598 16.8001C85.4298 16.8001 84.7198 17.8001 84.7098 19.3701C84.6998 20.9401 85.4298 21.9301 86.5598 21.9301C87.6898 21.9301 88.4798 21.0001 88.4798 19.3801L88.4198 19.3701ZM97.1698 14.2101C99.8598 14.2101 101.53 15.4801 101.55 17.5201H98.6198C98.6198 16.8101 98.0298 16.3701 97.1498 16.3701C96.2698 16.3701 95.8498 16.7101 95.8498 17.2201C95.8498 17.7301 96.2198 17.8901 96.9598 18.0401L99.0198 18.4601C101.02 18.8801 101.82 19.6801 101.82 21.1701C101.82 23.1701 99.9698 24.5301 97.2198 24.5301C94.4698 24.5301 92.6798 23.2101 92.5498 21.2001H95.6598C95.7498 21.9301 96.3298 22.3601 97.2698 22.3601C98.2098 22.3601 98.6498 22.0601 98.6498 21.5301C98.6498 21.0001 98.3498 20.9101 97.5798 20.7501L95.7198 20.3601C93.7898 19.9501 92.7798 18.9401 92.7798 17.4301C92.8398 15.4701 94.5198 14.2201 97.2298 14.2201L97.1698 14.2101ZM112.57 24.2901H109.46V22.4401H109.4C109.226 23.0572 108.847 23.5965 108.325 23.9691C107.803 24.3418 107.17 24.5255 106.53 24.4901C106.047 24.5058 105.565 24.4192 105.118 24.2358C104.671 24.0525 104.267 23.7766 103.934 23.4263C103.6 23.0759 103.345 22.659 103.184 22.203C103.023 21.747 102.96 21.262 103 20.7801V14.4501H106.21V20.0901C106.21 21.2501 106.82 21.8801 107.82 21.8801C108.055 21.8783 108.286 21.8262 108.499 21.7274C108.712 21.6285 108.901 21.4851 109.053 21.3069C109.206 21.1287 109.319 20.9198 109.384 20.6944C109.448 20.4689 109.464 20.2322 109.43 20.0001V14.4501H112.63L112.57 24.2901ZM114.12 14.4401H117.24V16.3401H117.31C117.482 15.7314 117.852 15.1971 118.36 14.8207C118.869 14.4444 119.488 14.2472 120.12 14.2601C120.755 14.2049 121.388 14.3885 121.894 14.775C122.401 15.1615 122.745 15.7232 122.86 16.3501H123C123.2 15.7198 123.602 15.1732 124.145 14.7953C124.687 14.4173 125.34 14.2292 126 14.2601C126.439 14.2434 126.877 14.3196 127.284 14.4837C127.692 14.6477 128.06 14.896 128.365 15.2123C128.67 15.5285 128.904 15.9056 129.053 16.3188C129.203 16.732 129.263 17.172 129.23 17.6101V24.3001H126V18.4301C126 17.4301 125.53 16.8701 124.62 16.8701C124.418 16.8668 124.218 16.9072 124.033 16.9884C123.848 17.0697 123.684 17.19 123.55 17.341C123.416 17.4921 123.316 17.6702 123.257 17.8634C123.199 18.0566 123.183 18.2601 123.21 18.4601V24.3001H120.15V18.4001C120.15 17.4001 119.66 16.8701 118.78 16.8701C118.576 16.8685 118.374 16.9105 118.188 16.9933C118.001 17.0762 117.835 17.1979 117.699 17.3504C117.564 17.5029 117.463 17.6826 117.403 17.8774C117.342 18.0723 117.324 18.2778 117.35 18.4801V24.3001H114.14L114.12 14.4401Z" fill="#394149"></path></g><g id="logomark"><path d="M32.1595 12.11C32.1596 10.1197 31.5586 8.17573 30.4352 6.53279C29.3118 4.88985 27.7183 3.6245 25.8636 2.9025C24.0089 2.18049 21.9793 2.03549 20.0408 2.48648C18.1022 2.93747 16.3451 3.96343 14.9995 5.42997H2.51953V31.77H28.8695V19.46C29.9037 18.535 30.7313 17.4023 31.2982 16.1358C31.8651 14.8693 32.1586 13.4976 32.1595 12.11ZM27.0895 12.11C27.0915 13.0637 26.8105 13.9966 26.2821 14.7906C25.7536 15.5845 25.0016 16.2039 24.121 16.5702C23.2404 16.9366 22.271 17.0335 21.3353 16.8486C20.3997 16.6638 19.5399 16.2055 18.8648 15.5318C18.1897 14.8581 17.7297 13.9993 17.5429 13.064C17.3561 12.1288 17.451 11.1591 17.8155 10.2778C18.18 9.39643 18.7978 8.64306 19.5906 8.11299C20.3835 7.58292 21.3158 7.29998 22.2695 7.29997C23.5461 7.29997 24.7706 7.80642 25.6742 8.70818C26.5779 9.60994 27.0869 10.8334 27.0895 12.11ZM23.7995 26.7H7.58953V10.5H12.5295C12.4341 11.0315 12.3839 11.5701 12.3795 12.11C12.3822 14.7322 13.425 17.2462 15.2792 19.1004C17.1333 20.9545 19.6473 21.9974 22.2695 22C22.7822 21.9973 23.2938 21.9538 23.7995 21.87V26.7Z" fill="#394149"></path></g></svg>