<svg width="122" height="14" viewBox="0 0 122 14" fill="none" xmlns="http://www.w3.org/2000/svg">
<path d="M116.636 9.72233C116.857 9.71852 117.079 9.75481 117.287 9.82943C117.46 9.88973 117.612 9.99866 117.725 10.143C117.825 10.2754 117.878 10.4365 117.878 10.602V10.7091C117.878 10.7091 117.878 10.755 117.817 10.755H117.387C117.342 10.755 117.326 10.755 117.326 10.7091V10.6096C117.326 10.4652 117.258 10.3291 117.142 10.2424C116.989 10.144 116.809 10.0958 116.628 10.1048C116.472 10.0968 116.316 10.1369 116.183 10.2195C116.078 10.2923 116.017 10.4133 116.022 10.5408C116.021 10.6274 116.05 10.7116 116.107 10.7779C116.174 10.8514 116.255 10.9112 116.344 10.9539C116.451 11.0151 116.613 11.0839 116.828 11.1757C117.034 11.2625 117.236 11.3594 117.434 11.4664C117.567 11.5351 117.685 11.6316 117.778 11.7494C117.867 11.8629 117.913 12.0035 117.909 12.1472C117.909 12.3975 117.785 12.6317 117.579 12.7744C117.314 12.9425 117.003 13.0252 116.689 13.0115C116.372 13.0188 116.059 12.9309 115.792 12.7591C115.583 12.6182 115.456 12.3836 115.454 12.1318V12.0095C115.454 12.0095 115.454 11.9636 115.516 11.9636H115.945C115.984 11.9636 116.007 11.9636 116.007 12.0095V12.1089C116.003 12.254 116.075 12.3905 116.198 12.4685C116.347 12.5767 116.529 12.6283 116.713 12.6138C116.878 12.6221 117.043 12.5765 117.18 12.4837C117.291 12.4111 117.358 12.2872 117.357 12.1548C117.359 12.0667 117.326 11.9812 117.265 11.9177C117.194 11.837 117.108 11.7719 117.011 11.7265C116.904 11.6652 116.743 11.5964 116.528 11.5046C116.313 11.4129 116.107 11.321 115.96 11.2445C115.828 11.171 115.71 11.0723 115.616 10.9539C115.521 10.834 115.472 10.6852 115.477 10.5332C115.475 10.2963 115.594 10.0743 115.792 9.94416C116.044 9.78735 116.338 9.71006 116.636 9.72233ZM56.3279 0V7.64937C56.3279 9.23782 57.6192 10.5255 59.2122 10.5255C60.805 10.5255 62.0963 9.23782 62.0963 7.64937V0H64.6047V7.64937C64.6047 9.56233 63.5813 11.33 61.9199 12.2865C60.2585 13.243 58.2117 13.243 56.5504 12.2865C54.889 11.33 53.8656 9.56233 53.8656 7.64937V0H56.3279ZM28.4906 0L34.5582 8.73555V0H37.0512V13.0039H34.5582L28.4906 4.26068V13.0039H26.0053V0H28.4906ZM50.5441 0V2.48604H46.7011V13.0039H44.2081V2.48604H40.365V0H50.5441ZM112.869 0V13.0039H110.377V2.48604H109.027V0H112.869ZM22.6838 0V2.48604H16.4782V5.26275H21.4565V7.74115H16.4782V10.5179H22.6838V13.0039H13.9928V0H22.6838ZM73.5565 0C74.7182 0 75.8322 0.460175 76.6538 1.27929C77.4748 2.09841 77.9368 3.20937 77.9368 4.36778C77.9383 6.27875 76.6958 7.96969 74.8682 8.5443L77.9368 13.0039H74.9756L72.007 8.72793H70.4192V13.0039H67.9261V0H73.5565ZM82.0325 0L85.6839 5.2551L89.3352 0H92.2959L86.934 7.72583V13.0039H84.4413V7.72583L79.0794 0H82.0325ZM100.828 0.222761C102.5 -0.340073 104.346 0.221659 105.418 1.61956C106.49 3.01746 106.55 4.94095 105.567 6.4025L105.498 6.49429L102.675 10.5179H106.51V13.0039H97.9574L103.25 5.35454C103.518 4.98261 103.7 4.55719 103.787 4.10769C103.8 3.67243 103.632 3.25121 103.322 2.94401C103.013 2.63682 102.59 2.47105 102.153 2.48604C101.254 2.48602 100.523 3.21084 100.519 4.10769V4.26068H98.026V4.10769C98.0291 2.34795 99.1557 0.785595 100.828 0.222761ZM1.7765 2.04422C4.14515 -0.458257 8.06009 -0.683861 10.702 1.52987L9.23691 3.57989C8.49399 2.87606 7.50788 2.48437 6.48312 2.48604C4.25898 2.48604 2.45595 4.28402 2.45595 6.50194C2.45595 8.71985 4.25898 10.5179 6.48312 10.5179C7.51954 10.5254 8.51823 10.1303 9.26763 9.41635L10.702 11.474C8.06009 13.6877 4.14515 13.4621 1.7765 10.9597C-0.592166 8.45717 -0.592166 4.54669 1.7765 2.04422ZM120.778 9.74528H121.215C121.215 9.74528 121.276 9.74528 121.276 9.79117V12.9121C121.276 12.9121 121.276 12.958 121.215 12.958H120.778C120.732 12.958 120.716 12.958 120.716 12.9121V10.7091L120.095 11.6958H119.758L119.128 10.7014V12.9044C119.128 12.9044 119.128 12.9503 119.075 12.9503H118.63C118.63 12.9503 118.592 12.9427 118.592 12.9121V9.79117C118.592 9.79117 118.592 9.74528 118.653 9.74528H119.098C119.12 9.73438 119.145 9.73438 119.167 9.74528L119.934 11.0227L120.701 9.74528C120.725 9.733 120.754 9.733 120.778 9.74528ZM73.5565 2.48604H70.4192V6.24951H73.5565C74.2307 6.24951 74.8536 5.89085 75.1907 5.30864C75.5278 4.72643 75.5278 4.00911 75.1907 3.4269C74.8536 2.84469 74.2307 2.48604 73.5565 2.48604Z" fill="#26252D"/>
</svg>
