<svg xmlns="http://www.w3.org/2000/svg" width="132" height="35" viewBox="0 0 132 35" fill="none" id="Logo"><g id="logotype"><path d="M44.8293 25.2045C44.2345 25.2368 43.6462 25.0677 43.1593 24.7245C42.9559 24.5737 42.7922 24.3756 42.6824 24.1474C42.5726 23.9191 42.5201 23.6676 42.5293 23.4145V14.1445C42.5245 14.1053 42.5286 14.0654 42.5415 14.028C42.5543 13.9906 42.5755 13.9567 42.6035 13.9287C42.6315 13.9007 42.6654 13.8795 42.7028 13.8667C42.7402 13.8538 42.7801 13.8497 42.8193 13.8545H44.4993C44.6893 13.8545 44.7793 13.9545 44.7793 14.1445V22.6945C44.7793 23.0745 44.9493 23.2645 45.2993 23.2645C45.4477 23.2706 45.5961 23.2538 45.7393 23.2145C45.9393 23.2145 46.0493 23.2745 46.0593 23.4545L46.2093 24.7045C46.2165 24.741 46.2158 24.7785 46.2073 24.8147C46.1988 24.8508 46.1826 24.8848 46.1598 24.9141C46.1371 24.9435 46.1083 24.9677 46.0755 24.985C46.0426 25.0023 46.0064 25.0124 45.9693 25.0145C45.6013 25.1361 45.2168 25.2002 44.8293 25.2045Z" fill="#394149"></path><path d="M54.2793 24.1347C53.4352 24.8322 52.3743 25.2137 51.2793 25.2137C50.1843 25.2137 49.1235 24.8322 48.2793 24.1347C47.5374 23.3857 47.1211 22.374 47.1211 21.3197C47.1211 20.2654 47.5374 19.2537 48.2793 18.5047C49.1251 17.8108 50.1853 17.4316 51.2793 17.4316C52.3733 17.4316 53.4335 17.8108 54.2793 18.5047C55.0042 19.2606 55.4089 20.2674 55.4089 21.3147C55.4089 22.362 55.0042 23.3688 54.2793 24.1247V24.1347ZM49.8593 22.8147C50.2511 23.1696 50.7607 23.3661 51.2893 23.3661C51.8179 23.3661 52.3276 23.1696 52.7193 22.8147C53.0739 22.4071 53.2691 21.885 53.2691 21.3447C53.2691 20.8045 53.0739 20.2824 52.7193 19.8747C52.3276 19.5199 51.8179 19.3233 51.2893 19.3233C50.7607 19.3233 50.2511 19.5199 49.8593 19.8747C49.5048 20.2824 49.3095 20.8045 49.3095 21.3447C49.3095 21.885 49.5048 22.4071 49.8593 22.8147Z" fill="#394149"></path><path d="M64.6609 17.6846C64.8509 17.6846 64.9409 17.7846 64.9409 17.9746V25.1446C64.9584 25.6286 64.8678 26.1103 64.6758 26.5548C64.4838 26.9994 64.1952 27.3956 63.8309 27.7146C63.0223 28.4041 61.9825 28.7614 60.9209 28.7146C59.9621 28.7483 59.016 28.4865 58.2109 27.9646C57.8671 27.7389 57.5734 27.4448 57.3481 27.1008C57.1227 26.7567 56.9705 26.37 56.9009 25.9646C56.9009 25.7646 56.9009 25.6746 57.1709 25.6746H58.8509C58.9222 25.677 58.9914 25.7001 59.0499 25.7409C59.1085 25.7817 59.154 25.8385 59.1809 25.9046C59.2899 26.2083 59.5071 26.4612 59.7909 26.6146C60.1368 26.7931 60.5218 26.8825 60.9109 26.8746C61.1457 26.8875 61.3807 26.8534 61.6022 26.7744C61.8237 26.6955 62.0272 26.5731 62.2009 26.4146C62.3596 26.2488 62.483 26.0525 62.5638 25.8377C62.6446 25.6229 62.681 25.3939 62.6709 25.1646V24.5346C62.0694 24.977 61.3373 25.2058 60.5909 25.1846C60.0685 25.2036 59.5477 25.1169 59.0596 24.9296C58.5716 24.7422 58.1265 24.4583 57.7509 24.0946C57.03 23.3488 56.627 22.352 56.627 21.3146C56.627 20.2773 57.03 19.2805 57.7509 18.5346C58.1283 18.1742 58.574 17.893 59.0617 17.7075C59.5495 17.522 60.0694 17.436 60.5909 17.4546C61.3589 17.4343 62.1107 17.6779 62.7209 18.1446V17.9846C62.7163 17.9463 62.7203 17.9074 62.7326 17.8708C62.7449 17.8343 62.7652 17.8009 62.792 17.7731C62.8188 17.7453 62.8515 17.7239 62.8876 17.7103C62.9238 17.6967 62.9625 17.6914 63.0009 17.6946L64.6609 17.6846ZM60.7809 23.4046C61.0385 23.4126 61.2948 23.3639 61.5315 23.2619C61.7682 23.16 61.9797 23.0073 62.1509 22.8146C62.4834 22.3853 62.6638 21.8576 62.6638 21.3146C62.6638 20.7716 62.4834 20.244 62.1509 19.8146C61.9803 19.6246 61.7701 19.4741 61.5352 19.3739C61.3002 19.2737 61.0462 19.2262 60.7909 19.2346C60.5303 19.2264 60.2711 19.2749 60.0311 19.3768C59.7911 19.4787 59.5761 19.6315 59.4009 19.8246C59.0326 20.2353 58.8389 20.7734 58.8609 21.3246C58.8429 21.8704 59.0323 22.4028 59.3909 22.8146C59.5665 23.0072 59.7816 23.1597 60.0215 23.2615C60.2614 23.3633 60.5204 23.4121 60.7809 23.4046Z" fill="#394149"></path><path d="M73.57 24.1348C72.7242 24.8287 71.664 25.2079 70.57 25.2079C69.476 25.2079 68.4158 24.8287 67.57 24.1348C66.8445 23.3772 66.4395 22.3688 66.4395 21.3198C66.4395 20.2709 66.8445 19.2624 67.57 18.5048C68.4166 17.8127 69.4765 17.4346 70.57 17.4346C71.6635 17.4346 72.7234 17.8127 73.57 18.5048C74.2949 19.2607 74.6996 20.2675 74.6996 21.3148C74.6996 22.3621 74.2949 23.3689 73.57 24.1248V24.1348ZM69.14 22.8148C69.3317 22.9972 69.5577 23.1397 69.8049 23.2341C70.0521 23.3285 70.3155 23.373 70.58 23.3648C70.8428 23.3716 71.1044 23.3266 71.3498 23.2322C71.5952 23.1378 71.8195 22.996 72.01 22.8148C72.3588 22.4044 72.5503 21.8834 72.5503 21.3448C72.5503 20.8062 72.3588 20.2852 72.01 19.8748C71.8195 19.6937 71.5952 19.5518 71.3498 19.4575C71.1044 19.3631 70.8428 19.318 70.58 19.3248C70.3155 19.3167 70.0521 19.3611 69.8049 19.4555C69.5577 19.5499 69.3317 19.6925 69.14 19.8748C68.7913 20.2852 68.5998 20.8062 68.5998 21.3448C68.5998 21.8834 68.7913 22.4044 69.14 22.8148Z" fill="#394149"></path><path d="M78.309 15.9848C78.0447 16.2162 77.7053 16.3437 77.354 16.3437C77.0027 16.3437 76.6634 16.2162 76.399 15.9848C76.2792 15.8717 76.1837 15.7353 76.1184 15.584C76.0532 15.4327 76.0195 15.2696 76.0195 15.1048C76.0195 14.94 76.0532 14.777 76.1184 14.6256C76.1837 14.4743 76.2792 14.3379 76.399 14.2248C76.6661 13.9992 77.0044 13.8755 77.354 13.8755C77.7036 13.8755 78.0419 13.9992 78.309 14.2248C78.4289 14.3379 78.5244 14.4743 78.5896 14.6256C78.6549 14.777 78.6885 14.94 78.6885 15.1048C78.6885 15.2696 78.6549 15.4327 78.5896 15.584C78.5244 15.7353 78.4289 15.8717 78.309 15.9848ZM78.519 25.2048C77.9246 25.234 77.3373 25.0652 76.849 24.7248C76.6487 24.5718 76.4878 24.373 76.38 24.1451C76.2721 23.9172 76.2203 23.6668 76.229 23.4148V17.9748C76.2242 17.9356 76.2283 17.8957 76.2412 17.8583C76.254 17.8209 76.2752 17.787 76.3032 17.759C76.3312 17.731 76.3651 17.7098 76.4025 17.697C76.4399 17.6841 76.4798 17.68 76.519 17.6848H78.199C78.389 17.6848 78.479 17.7848 78.479 17.9748V22.6948C78.479 23.0748 78.649 23.2648 78.989 23.2648C79.1407 23.2703 79.2923 23.2534 79.439 23.2148C79.639 23.2148 79.749 23.2748 79.759 23.4548L79.909 24.7048C79.9162 24.7413 79.9155 24.7788 79.907 24.815C79.8985 24.8511 79.8823 24.8851 79.8595 24.9144C79.8368 24.9438 79.808 24.968 79.7752 24.9853C79.7423 25.0026 79.7061 25.0127 79.669 25.0148C79.2978 25.1371 78.9099 25.2012 78.519 25.2048Z" fill="#394149"></path><path d="M86.0908 17.4447C86.6156 17.424 87.1391 17.5089 87.6304 17.6944C88.1217 17.88 88.5708 18.1623 88.9508 18.5247C89.658 19.2837 90.0512 20.2824 90.0512 21.3197C90.0512 22.357 89.658 23.3558 88.9508 24.1147C88.5726 24.4804 88.1241 24.7655 87.6325 24.9528C87.1409 25.1402 86.6165 25.2259 86.0908 25.2047C85.342 25.2214 84.6081 24.9932 84.0008 24.5547V28.1647C84.0008 28.3547 83.9008 28.4447 83.7108 28.4447H82.0308C81.9925 28.4519 81.953 28.4496 81.9157 28.4381C81.8785 28.4265 81.8446 28.4061 81.817 28.3785C81.7895 28.3509 81.769 28.3171 81.7575 28.2798C81.7459 28.2426 81.7437 28.2031 81.7508 28.1647V19.9647C81.7626 19.8845 81.7554 19.8027 81.73 19.7257C81.7045 19.6488 81.6613 19.5788 81.604 19.5215C81.5467 19.4642 81.4768 19.4211 81.3998 19.3956C81.3229 19.3701 81.241 19.363 81.1608 19.3747H80.8308C80.6108 19.3747 80.5008 19.2947 80.5008 19.1347V17.9547C80.4956 17.8817 80.5156 17.8091 80.5575 17.7491C80.5993 17.689 80.6605 17.6451 80.7308 17.6247C81.0767 17.499 81.4428 17.438 81.8108 17.4447C82.1778 17.4122 82.5461 17.4901 82.8686 17.6682C83.191 17.8464 83.453 18.1168 83.6208 18.4447C83.9429 18.1189 84.3281 17.8622 84.7528 17.6902C85.1775 17.5183 85.6328 17.4347 86.0908 17.4447ZM84.5308 22.8147C84.7091 23.0011 84.9233 23.1494 85.1605 23.2507C85.3977 23.352 85.6529 23.4042 85.9108 23.4042C86.1687 23.4042 86.424 23.352 86.6611 23.2507C86.8983 23.1494 87.1125 23.0011 87.2908 22.8147C87.6664 22.3958 87.8637 21.8469 87.8408 21.2847C87.867 20.7221 87.6692 20.1719 87.2908 19.7547C87.1125 19.5684 86.8983 19.4201 86.6611 19.3188C86.424 19.2174 86.1687 19.1652 85.9108 19.1652C85.6529 19.1652 85.3977 19.2174 85.1605 19.3188C84.9233 19.4201 84.7091 19.5684 84.5308 19.7547C84.167 20.1793 83.9776 20.726 84.0008 21.2847C83.9805 21.843 84.1696 22.3887 84.5308 22.8147Z" fill="#394149"></path><path d="M94.7691 25.2046C93.8714 25.2415 92.9813 25.0268 92.1991 24.5846C91.8853 24.3956 91.6181 24.1383 91.4172 23.8319C91.2164 23.5255 91.0872 23.1778 91.0391 22.8146C91.0391 22.6146 91.1091 22.5146 91.3291 22.5146H92.7991C92.869 22.5174 92.9369 22.5393 92.9951 22.5782C93.0533 22.617 93.0997 22.6711 93.1291 22.7346C93.3391 23.2746 93.8891 23.5446 94.7691 23.5446C95.0761 23.5587 95.3817 23.4968 95.6591 23.3646C95.7549 23.3214 95.837 23.253 95.8969 23.1667C95.9568 23.0804 95.9921 22.9794 95.9991 22.8746C95.9991 22.6146 95.8391 22.4346 95.5191 22.3146C95.1396 22.1883 94.7472 22.1044 94.3491 22.0646C93.8776 22.0112 93.41 21.9277 92.9491 21.8146C92.5009 21.7132 92.0934 21.4798 91.7791 21.1446C91.594 20.9168 91.4578 20.6533 91.3788 20.3706C91.2999 20.0879 91.28 19.7919 91.3203 19.5012C91.3607 19.2104 91.4604 18.931 91.6133 18.6805C91.7662 18.4299 91.969 18.2135 92.2091 18.0446C92.9299 17.5855 93.7756 17.3618 94.6291 17.4046C95.4555 17.3767 96.2731 17.5811 96.9891 17.9946C97.2777 18.1581 97.5261 18.3838 97.7164 18.6554C97.9067 18.927 98.034 19.2376 98.0891 19.5646C98.0891 19.7646 97.9991 19.8646 97.8191 19.8646H96.3391C96.2768 19.8683 96.2148 19.8531 96.1613 19.821C96.1078 19.7889 96.0652 19.7413 96.0391 19.6846C95.9402 19.4478 95.754 19.258 95.5191 19.1546C95.2541 19.016 94.9581 18.9471 94.6591 18.9546C94.366 18.9387 94.0736 18.9972 93.8091 19.1246C93.7159 19.1606 93.6357 19.2236 93.5786 19.3056C93.5216 19.3876 93.4904 19.4848 93.4891 19.5846C93.4955 19.7214 93.5456 19.8525 93.632 19.9587C93.7184 20.0649 93.8365 20.1405 93.9691 20.1746C94.3531 20.3194 94.7524 20.42 95.1591 20.4746C95.6268 20.5362 96.0908 20.623 96.5491 20.7346C96.9973 20.8361 97.4048 21.0694 97.7191 21.4046C97.8873 21.5893 98.0171 21.8054 98.1012 22.0406C98.1853 22.2757 98.222 22.5252 98.2091 22.7746C98.2177 23.1203 98.1366 23.4623 97.9736 23.7673C97.8106 24.0722 97.5713 24.3297 97.2791 24.5146C96.532 24.9943 95.6565 25.2349 94.7691 25.2046Z" fill="#394149"></path><path d="M108.781 24.7046C108.787 24.7401 108.785 24.7764 108.777 24.8113C108.768 24.8463 108.753 24.8791 108.731 24.908C108.71 24.9369 108.683 24.9612 108.652 24.9795C108.621 24.9978 108.587 25.0097 108.551 25.0146C108.186 25.1338 107.805 25.1979 107.421 25.2046C107.041 25.244 106.657 25.1846 106.307 25.0322C105.956 24.8798 105.651 24.6395 105.421 24.3346C104.715 24.9419 103.801 25.2535 102.871 25.2046C102.439 25.2245 102.008 25.1538 101.605 24.9971C101.202 24.8404 100.836 24.6011 100.531 24.2946C100.228 23.9735 99.9928 23.5945 99.8398 23.1804C99.6869 22.7663 99.6192 22.3256 99.6406 21.8846V17.9746C99.6406 17.7846 99.7306 17.6846 99.9206 17.6846H101.601C101.791 17.6846 101.881 17.7846 101.881 17.9746V21.5846C101.863 22.0344 102.016 22.4742 102.311 22.8146C102.458 22.9706 102.637 23.0932 102.835 23.1743C103.033 23.2554 103.247 23.293 103.461 23.2846C103.68 23.2942 103.899 23.2603 104.105 23.1847C104.311 23.1092 104.5 22.9936 104.661 22.8446C104.813 22.6876 104.932 22.501 105.009 22.2963C105.087 22.0916 105.121 21.8732 105.111 21.6546V17.9746C105.111 17.7846 105.201 17.6846 105.391 17.6846H107.091C107.281 17.6846 107.371 17.7846 107.371 17.9746V22.6846C107.371 23.0746 107.541 23.2646 107.871 23.2646C108.026 23.2706 108.181 23.2538 108.331 23.2146C108.369 23.204 108.409 23.2021 108.447 23.2091C108.486 23.216 108.522 23.2316 108.554 23.2547C108.586 23.2778 108.612 23.3078 108.631 23.3424C108.649 23.377 108.659 23.4154 108.661 23.4546L108.781 24.7046Z" fill="#394149"></path><path d="M124.671 24.7048C124.68 24.7406 124.681 24.778 124.674 24.8142C124.666 24.8503 124.651 24.8845 124.629 24.9141C124.607 24.9437 124.579 24.9681 124.546 24.9855C124.514 25.003 124.478 25.013 124.441 25.0148C124.069 25.1357 123.682 25.1998 123.291 25.2048C122.696 25.2355 122.109 25.0666 121.621 24.7248C121.41 24.5784 121.239 24.3823 121.122 24.1538C121.005 23.9253 120.946 23.6714 120.951 23.4148V21.0648C120.972 20.6164 120.822 20.1767 120.531 19.8348C120.391 19.6785 120.217 19.5553 120.024 19.474C119.83 19.3928 119.621 19.3555 119.411 19.3648C119.222 19.3577 119.034 19.3936 118.86 19.4698C118.687 19.546 118.534 19.6606 118.411 19.8048C118.147 20.1399 118.012 20.5587 118.031 20.9848V24.6748C118.031 24.8648 117.941 24.9648 117.751 24.9648H116.061C116.022 24.9697 115.982 24.9655 115.945 24.9527C115.907 24.9398 115.873 24.9186 115.845 24.8906C115.817 24.8627 115.796 24.8287 115.783 24.7913C115.77 24.7539 115.766 24.7141 115.771 24.6748V21.0648C115.793 20.6213 115.654 20.1847 115.381 19.8348C115.259 19.6878 115.106 19.5695 114.933 19.4883C114.761 19.4071 114.572 19.3649 114.381 19.3648C114.177 19.3566 113.974 19.3915 113.784 19.4674C113.594 19.5432 113.423 19.6582 113.281 19.8048C112.995 20.1292 112.848 20.553 112.871 20.9848V24.6748C112.876 24.7141 112.872 24.7539 112.859 24.7913C112.846 24.8287 112.825 24.8627 112.797 24.8906C112.769 24.9186 112.735 24.9398 112.698 24.9527C112.66 24.9655 112.62 24.9697 112.581 24.9648H110.951C110.761 24.9648 110.671 24.8648 110.671 24.6748V19.9648C110.683 19.8846 110.676 19.8028 110.65 19.7258C110.625 19.6489 110.582 19.5789 110.524 19.5216C110.467 19.4643 110.397 19.4212 110.32 19.3957C110.243 19.3702 110.161 19.3631 110.081 19.3748H109.751C109.531 19.3748 109.421 19.2948 109.421 19.1348V17.9548C109.416 17.8818 109.436 17.8092 109.478 17.7492C109.52 17.6891 109.581 17.6452 109.651 17.6248C109.997 17.4991 110.363 17.4381 110.731 17.4448C111.084 17.4147 111.439 17.4851 111.754 17.6479C112.069 17.8107 112.331 18.0592 112.511 18.3648C112.848 18.0451 113.248 17.7983 113.685 17.64C114.122 17.4817 114.587 17.4153 115.051 17.4448C115.502 17.4228 115.951 17.5073 116.363 17.6915C116.775 17.8757 117.137 18.1543 117.421 18.5048C117.752 18.1451 118.159 17.8635 118.612 17.6801C119.065 17.4968 119.553 17.4165 120.041 17.4448C120.477 17.4244 120.913 17.4947 121.321 17.6514C121.729 17.808 122.1 18.0475 122.411 18.3548C122.715 18.6753 122.95 19.0542 123.103 19.4685C123.256 19.8827 123.324 20.3238 123.301 20.7648V22.6948C123.301 23.0748 123.471 23.2648 123.791 23.2648C123.946 23.272 124.101 23.2552 124.251 23.2148C124.458 23.2148 124.568 23.2948 124.581 23.4548L124.671 24.7048Z" fill="#394149"></path></g><g id="logomark"><path d="M7.41 16.3847C8.14777 13.4194 9.85643 10.7861 12.2639 8.90424C14.6714 7.02234 17.6393 6 20.695 6C23.7507 6 26.7186 7.02234 29.1261 8.90424C31.5336 10.7861 33.2422 13.4194 33.98 16.3847H32.78C30.7557 16.3549 28.7729 16.9599 27.11 18.1147C27.014 18.1842 26.9138 18.2477 26.81 18.3047H26.67C26.5662 18.2477 26.466 18.1842 26.37 18.1147C24.6924 16.9866 22.7166 16.3841 20.695 16.3841C18.6734 16.3841 16.6976 16.9866 15.02 18.1147C14.924 18.1842 14.8238 18.2477 14.72 18.3047H14.58C14.4762 18.2477 14.376 18.1842 14.28 18.1147C12.6171 16.9599 10.6343 16.3549 8.61 16.3847H7.41ZM30.62 22.6547C31.236 22.175 31.9995 21.924 32.78 21.9447H34.39V18.7347H32.78C31.4052 18.7181 30.0619 19.146 28.95 19.9547C28.3243 20.416 27.5674 20.6649 26.79 20.6649C26.0126 20.6649 25.2557 20.416 24.63 19.9547C23.4899 19.1611 22.1341 18.7356 20.745 18.7356C19.3559 18.7356 18.0001 19.1611 16.86 19.9547C16.2343 20.416 15.4774 20.6649 14.7 20.6649C13.9226 20.6649 13.1657 20.416 12.54 19.9547C11.4144 19.1356 10.0518 18.7072 8.66 18.7347H7V21.9447H8.61C9.39051 21.924 10.154 22.175 10.77 22.6547C11.908 23.4489 13.2623 23.8747 14.65 23.8747C16.0377 23.8747 17.392 23.4489 18.53 22.6547C19.1468 22.1765 19.9097 21.9257 20.69 21.9447C21.4708 21.9223 22.2348 22.1735 22.85 22.6547C23.9901 23.4484 25.3459 23.8738 26.735 23.8738C28.1241 23.8738 29.4799 23.4484 30.62 22.6547ZM30.62 28.3947C31.236 27.915 31.9995 27.664 32.78 27.6847H34.39V24.4747H32.78C31.4052 24.4581 30.0619 24.886 28.95 25.6947C28.3243 26.156 27.5674 26.4049 26.79 26.4049C26.0126 26.4049 25.2557 26.156 24.63 25.6947C23.4899 24.9011 22.1341 24.4757 20.745 24.4757C19.3559 24.4757 18.0001 24.9011 16.86 25.6947C16.2343 26.156 15.4774 26.4049 14.7 26.4049C13.9226 26.4049 13.1657 26.156 12.54 25.6947C11.4144 24.8757 10.0518 24.4472 8.66 24.4747H7V27.6847H8.61C9.39051 27.664 10.154 27.915 10.77 28.3947C11.908 29.1889 13.2623 29.6147 14.65 29.6147C16.0377 29.6147 17.392 29.1889 18.53 28.3947C19.1468 27.9165 19.9097 27.6657 20.69 27.6847C21.4708 27.6623 22.2348 27.9135 22.85 28.3947C23.9901 29.1884 25.3459 29.6138 26.735 29.6138C28.1241 29.6138 29.4799 29.1884 30.62 28.3947Z" fill="#394149"></path></g></svg>