<svg xmlns="http://www.w3.org/2000/svg" width="124" height="32" viewBox="0 0 124 32" fill="none" id="Logo"><g id="logotype"><path d="M36.8691 10.0702H39.8691V22.2002H36.8691V10.0702ZM41.0591 17.6202C41.0591 14.6202 42.8991 12.8302 45.7391 12.8302C48.5791 12.8302 50.4191 14.6202 50.4191 17.6202C50.4191 20.6202 48.6191 22.4202 45.7391 22.4202C42.8591 22.4202 41.0591 20.6702 41.0591 17.6202ZM47.4091 17.6202C47.4091 15.9702 46.7591 15.0002 45.7391 15.0002C44.7191 15.0002 44.0791 16.0002 44.0791 17.6202C44.0791 19.2402 44.7091 20.2202 45.7391 20.2202C46.7691 20.2202 47.4091 19.3002 47.4091 17.6302V17.6202ZM51.5491 22.7902H54.4291C54.5662 23.0947 54.7979 23.3468 55.0898 23.509C55.3817 23.6711 55.7182 23.7347 56.0491 23.6902C57.1891 23.6902 57.7891 23.0702 57.7891 22.1702V20.4902H57.7291C57.4901 21.0051 57.1022 21.4365 56.6156 21.7289C56.129 22.0212 55.5659 22.161 54.9991 22.1302C52.8091 22.1302 51.3591 20.4602 51.3591 17.5902C51.3591 14.7202 52.7391 12.9102 55.0391 12.9102C55.6237 12.8873 56.2013 13.0436 56.6946 13.3581C57.1879 13.6727 57.5733 14.1305 57.7991 14.6702V13.0002H60.7991V22.1002C60.7991 24.2902 58.8691 25.6502 56.0191 25.6502C53.3691 25.6502 51.7191 24.4602 51.5491 22.8002V22.7902ZM57.7991 17.6102C57.7991 16.1502 57.1291 15.2302 56.0691 15.2302C55.0091 15.2302 54.3591 16.1402 54.3591 17.6102C54.3591 19.0802 54.9991 19.9102 56.0691 19.9102C57.1391 19.9102 57.7991 19.1002 57.7991 17.6202V17.6102ZM61.9291 17.6102C61.9291 14.6102 63.7691 12.8202 66.6091 12.8202C69.4491 12.8202 71.2991 14.6102 71.2991 17.6102C71.2991 20.6102 69.4991 22.4102 66.6091 22.4102C63.7191 22.4102 61.9291 20.6702 61.9291 17.6202V17.6102ZM68.2791 17.6102C68.2791 15.9602 67.6291 14.9902 66.6091 14.9902C65.5891 14.9902 64.9991 16.0002 64.9991 17.6302C64.9991 19.2602 65.6291 20.2302 66.6491 20.2302C67.6691 20.2302 68.2791 19.3002 68.2791 17.6302V17.6102ZM72.4391 10.8202C72.4312 10.5173 72.5135 10.2189 72.6754 9.96279C72.8374 9.70669 73.0717 9.50445 73.3487 9.38169C73.6257 9.25893 73.9329 9.22118 74.2314 9.27323C74.5299 9.32529 74.8062 9.4648 75.0253 9.67407C75.2445 9.88335 75.3965 10.153 75.4622 10.4488C75.5279 10.7446 75.5043 11.0532 75.3943 11.3356C75.2844 11.6179 75.0931 11.8613 74.8447 12.0348C74.5964 12.2083 74.302 12.3042 73.9991 12.3102C73.7983 12.324 73.5968 12.2961 73.4073 12.2283C73.2177 12.1605 73.0443 12.0543 72.8978 11.9162C72.7513 11.7782 72.6349 11.6113 72.556 11.4261C72.477 11.241 72.4372 11.0415 72.4391 10.8402V10.8202ZM72.4391 13.0202H75.4391V22.2002H72.4391V13.0202ZM86.3291 17.6102C86.3291 20.6102 84.9991 22.3202 82.7191 22.3202C82.1345 22.3577 81.5524 22.2148 81.0516 21.9108C80.5508 21.6067 80.1555 21.1562 79.9191 20.6202H79.8591V25.1402H76.8591V13.0002H79.8591V14.6402H79.9191C80.1445 14.0953 80.5323 13.6331 81.0297 13.3164C81.5271 12.9997 82.11 12.8439 82.6991 12.8702C84.9991 12.9102 86.3691 14.6302 86.3691 17.6302L86.3291 17.6102ZM83.3291 17.6102C83.3291 16.1502 82.6591 15.2202 81.6091 15.2202C80.5591 15.2202 79.8891 16.1602 79.8791 17.6102C79.8691 19.0602 80.5591 19.9902 81.6091 19.9902C82.6591 19.9902 83.3291 19.0802 83.3291 17.6302V17.6102ZM91.4791 12.8102C93.9691 12.8102 95.4791 13.9902 95.5491 15.8802H92.8191C92.8191 15.2302 92.2791 14.8202 91.4491 14.8202C90.6191 14.8202 90.2491 15.1402 90.2491 15.6102C90.2491 16.0802 90.5791 16.2302 91.2491 16.3702L93.1691 16.7602C94.9991 17.1502 95.7791 17.8902 95.7791 19.2802C95.7791 21.1802 94.0491 22.4002 91.4991 22.4002C88.9491 22.4002 87.2791 21.1802 87.1491 19.3102H90.0391C90.1291 19.9902 90.6691 20.3902 91.5491 20.3902C92.4291 20.3902 92.8291 20.1002 92.8291 19.6202C92.8291 19.1402 92.5491 19.0402 91.8291 18.8902L90.0991 18.5202C88.3091 18.1502 87.3691 17.2002 87.3691 15.8002C87.3891 14.0002 88.9991 12.8302 91.4791 12.8302V12.8102ZM105.789 22.1802H102.899V20.4702H102.839C102.68 21.0443 102.33 21.5468 101.846 21.8943C101.362 22.2417 100.774 22.4132 100.179 22.3802C99.7233 22.4061 99.2673 22.3339 98.8418 22.1684C98.4163 22.0029 98.0313 21.7481 97.7128 21.421C97.3943 21.094 97.1496 20.7023 96.9955 20.2726C96.8413 19.8429 96.7812 19.3851 96.8191 18.9302V13.0002H99.8191V18.2402C99.8191 19.3302 100.379 19.9102 101.309 19.9102C101.527 19.9106 101.743 19.8645 101.942 19.7748C102.14 19.6851 102.318 19.5539 102.462 19.3901C102.605 19.2262 102.713 19.0335 102.776 18.8249C102.839 18.6162 102.858 18.3964 102.829 18.1802V13.0002H105.829L105.789 22.1802ZM107.239 13.0002H110.139V14.7702H110.199C110.358 14.2037 110.701 13.7059 111.173 13.3549C111.645 13.0039 112.221 12.8193 112.809 12.8302C113.408 12.7823 114.002 12.9614 114.475 13.332C114.947 13.7026 115.263 14.2374 115.359 14.8302H115.419C115.6 14.2311 115.976 13.7095 116.487 13.3474C116.997 12.9853 117.614 12.8033 118.239 12.8302C118.647 12.8165 119.053 12.8888 119.431 13.0424C119.81 13.1959 120.151 13.4274 120.434 13.7216C120.717 14.0159 120.935 14.3664 121.074 14.7503C121.212 15.1342 121.269 15.5431 121.239 15.9502V22.2002H118.239V16.7502C118.239 15.7502 117.789 15.2902 116.949 15.2902C116.762 15.2886 116.576 15.3272 116.405 15.4034C116.234 15.4796 116.081 15.5916 115.957 15.7319C115.833 15.8722 115.74 16.0374 115.685 16.2165C115.63 16.3957 115.615 16.5845 115.639 16.7702V22.2002H112.789V16.7102C112.789 15.7902 112.339 15.2902 111.519 15.2902C111.33 15.2903 111.142 15.3305 110.97 15.4082C110.797 15.486 110.642 15.5995 110.517 15.7412C110.391 15.8829 110.297 16.0497 110.24 16.2306C110.184 16.4114 110.166 16.6021 110.189 16.7902V22.2002H107.189L107.239 13.0002Z" fill="#394149"></path></g><path d="M28.4796 10.6199C27.9707 9.45625 27.2972 8.37182 26.4796 7.39989C25.2711 5.92023 23.7629 4.71328 22.0543 3.85849C20.3457 3.00371 18.4754 2.52046 16.5666 2.44055C14.6578 2.36064 12.7537 2.68588 10.9796 3.39488C9.20558 4.10387 7.60178 5.18054 6.27381 6.55402C4.94583 7.92749 3.92378 9.56664 3.27493 11.3636C2.62608 13.1605 2.36513 15.0745 2.50927 16.9795C2.65342 18.8846 3.19937 20.7375 4.11121 22.4163C5.02305 24.0952 6.2801 25.5619 7.79962 26.7199C8.77462 27.4778 9.85197 28.0939 10.9996 28.5499C12.6086 29.2093 14.3307 29.5489 16.0696 29.5499C19.659 29.542 23.0988 28.1112 25.6351 25.5712C28.1713 23.0312 29.597 19.5893 29.5996 15.9999C29.6022 14.1484 29.2209 12.3165 28.4796 10.6199ZM16.0596 5.18988C17.6212 5.18972 19.1639 5.53102 20.5796 6.18988C20.2344 6.33905 19.8714 6.44324 19.4996 6.49989C18.2762 6.67698 17.1429 7.24496 16.2688 8.11906C15.3947 8.99315 14.8267 10.1265 14.6496 11.3499C14.5719 12.036 14.2598 12.6743 13.7661 13.1571C13.2724 13.6399 12.6273 13.9375 11.9396 13.9999C10.7162 14.177 9.58288 14.745 8.70879 15.6191C7.8347 16.4932 7.26671 17.6265 7.08962 18.8499C7.02966 19.5023 6.75131 20.1154 6.29962 20.5899C5.52027 18.9432 5.17017 17.126 5.28189 15.3076C5.39361 13.4892 5.96352 11.7286 6.93859 10.1896C7.91365 8.65068 9.26219 7.3834 10.8587 6.50573C12.4552 5.62806 14.2478 5.16853 16.0696 5.16988L16.0596 5.18988ZM7.78962 22.9999C7.90962 22.8899 8.02962 22.7899 8.14962 22.6699C9.03927 21.8074 9.61033 20.6688 9.76962 19.4399C9.8342 18.7491 10.1426 18.1039 10.6396 17.6199C11.1179 17.1221 11.7616 16.8162 12.4496 16.7599C13.673 16.5828 14.8063 16.0148 15.6804 15.1407C16.5545 14.2666 17.1225 13.1333 17.2996 11.9099C17.3429 11.1874 17.6529 10.5067 18.1696 9.99989C18.6597 9.51174 19.3095 9.21699 19.9996 9.16988C21.1235 9.01525 22.1717 8.5156 22.9996 7.73989C23.9423 8.52196 24.7409 9.46278 25.3596 10.5199C25.3216 10.5712 25.278 10.6182 25.2296 10.6599C24.7523 11.1621 24.1094 11.4747 23.4196 11.5399C22.1949 11.7139 21.0599 12.2809 20.1852 13.1555C19.3106 14.0302 18.7436 15.1652 18.5696 16.3899C18.4991 17.0783 18.1928 17.7212 17.7026 18.2096C17.2123 18.6981 16.5683 19.002 15.8796 19.0699C14.6526 19.2456 13.5151 19.8125 12.6359 20.6862C11.7568 21.56 11.1829 22.694 10.9996 23.9199C10.9458 24.4086 10.7779 24.8779 10.5096 25.2899C9.48361 24.6807 8.56471 23.9071 7.78962 22.9999ZM16.0596 26.8599C15.0449 26.861 14.035 26.7196 13.0596 26.4399C13.3933 25.8179 13.6102 25.14 13.6996 24.4399C13.7697 23.753 14.0746 23.1113 14.5628 22.6231C15.051 22.1349 15.6927 21.83 16.3796 21.7599C17.6048 21.5848 18.7404 21.0177 19.6165 20.1434C20.4925 19.2692 21.062 18.1347 21.2396 16.9099C21.3097 16.223 21.6146 15.5813 22.1028 15.0931C22.591 14.6049 23.2327 14.3 23.9196 14.2299C24.8416 14.11 25.7204 13.7667 26.4796 13.2299C26.9012 14.8278 26.9511 16.501 26.6256 18.1212C26.3001 19.7414 25.6077 21.2656 24.6017 22.5767C23.5957 23.8877 22.3028 24.951 20.822 25.6848C19.3413 26.4186 17.7122 26.8035 16.0596 26.8099V26.8599Z" fill="#394149"></path></svg>