<svg xmlns="http://www.w3.org/2000/svg" width="163" height="42" viewBox="0 0 163 42" fill="none" id="Logo"><g id="logotype"><g id="Vector"><path d="M30.21 17.719C33.348 17.719 34.054 19.082 34.054 20.782C34.054 22.584 33.2 23.875 30.223 23.875C27.265 23.875 26.41 22.659 26.41 20.782C26.41 18.935 27.342 17.719 30.21 17.719Z" fill="#394149"></path><path d="M63.0031 17.7192C66.1411 17.7192 66.8471 19.0822 66.8471 20.7822C66.8471 22.5842 65.9921 23.8752 63.0161 23.8752C60.0591 23.8752 59.2031 22.6592 59.2031 20.7822C59.2031 18.9352 60.1351 17.7192 63.0031 17.7192Z" fill="#394149"></path><path fill-rule="evenodd" clip-rule="evenodd" d="M2.42773 38.4999V3.04688H161.006V38.4999H2.42773ZM78.0058 36.4999H159.006V5.04688H78.0058V36.4999ZM30.226 26.8929C35.797 26.8929 38.139 24.4899 38.139 20.7369C38.139 16.9229 35.501 14.6559 30.226 14.6559C25.032 14.6559 22.298 17.1179 22.298 20.7369C22.298 24.8209 25.166 26.8929 30.226 26.8929ZM10.857 14.9259V26.7129H22.101V23.5739H14.925V14.9259H10.857ZM50.723 26.7129L50.618 25.5709C49.2571 26.5421 47.6007 27.0095 45.933 26.8929C43.426 26.8929 41.338 26.1419 40.167 24.6259C39.3946 23.5191 39.0046 22.1905 39.056 20.8419C39.0121 19.5216 39.4156 18.2252 40.201 17.1629C41.386 15.6919 43.534 14.7159 46.732 14.7159C50.411 14.7159 52.573 15.8419 53.503 17.7339C53.7026 18.1795 53.8199 18.6575 53.849 19.1449H49.957C49.8589 18.8487 49.6764 18.5877 49.432 18.3939C48.6567 17.8799 47.7309 17.6422 46.804 17.7189C46.2603 17.653 45.7087 17.7032 45.1859 17.8663C44.6631 18.0294 44.1808 18.3016 43.771 18.6649C43.3056 19.3019 43.0871 20.0861 43.156 20.8719C43.102 21.6216 43.3029 22.3676 43.726 22.9889C44.1395 23.3742 44.6311 23.666 45.1673 23.8448C45.7036 24.0235 46.2719 24.085 46.834 24.0249C47.9503 24.1157 49.0586 23.7714 49.927 23.0639C50.1135 22.8307 50.2421 22.5565 50.302 22.2639H46.114V19.7309H53.951V26.7129H50.723ZM63.02 26.8929C68.59 26.8929 70.933 24.4899 70.933 20.7369C70.933 16.9229 68.2909 14.6559 63.02 14.6559C57.826 14.6559 55.092 17.1179 55.092 20.7369C55.092 24.8209 57.96 26.8929 63.02 26.8929Z" fill="#394149"></path><path d="M84.8574 26.6679V14.8809H87.7574V26.6679H84.8574Z" fill="#394149"></path><path d="M102.65 21.7431C101.915 22.7041 100.65 23.1431 98.867 23.1541C98.491 23.1541 93.506 23.1391 93.506 23.1391V26.6681H90.668V14.8811H98.868C99.5252 14.8116 100.19 14.8813 100.818 15.0856C101.447 15.29 102.025 15.6244 102.516 16.0671C103.164 16.9113 103.479 17.9639 103.402 19.0251C103.468 19.9903 103.203 20.9492 102.65 21.7431ZM100.323 17.9001C100.023 17.4501 99.376 17.2001 98.281 17.2001H93.491V20.7881H98.25C99.421 20.7881 100.038 20.5481 100.323 20.0821C100.492 19.7538 100.565 19.3841 100.533 19.0161C100.558 18.6323 100.486 18.2484 100.323 17.9001Z" fill="#394149"></path><path d="M111.763 26.8482C106.417 26.8482 104.781 24.8482 104.781 22.8692H107.814C107.814 23.8452 109.15 24.5812 111.898 24.5812C114.63 24.5812 115.351 24.1002 115.351 23.3192C115.351 22.4482 114.811 22.1782 112.273 21.8932C111.773 21.8482 110.412 21.6832 109.901 21.6082C106.301 21.2022 104.915 20.1362 104.915 18.2292C104.915 16.2172 106.943 14.7012 111.342 14.7012C116.117 14.7012 117.949 16.5782 117.949 18.5302H114.949C114.949 17.5392 113.823 16.9682 111.165 16.9682C108.432 16.9682 107.847 17.3432 107.847 18.0792C107.847 18.8452 108.447 19.0852 111.347 19.4302C112.008 19.5212 113.479 19.6862 113.884 19.7302C116.948 20.0452 118.329 21.1562 118.329 23.1232C118.324 25.4662 116.222 26.8482 111.763 26.8482Z" fill="#394149"></path><path d="M126.869 26.8329C122.951 26.8329 120.398 25.2859 120.398 22.0329V14.8809H123.265V22.0729C123.265 23.5599 124.482 24.5499 126.989 24.5499C129.256 24.5499 130.608 23.6199 130.608 22.0729V14.8809H133.446V22.2999C133.446 25.2569 131.073 26.8329 126.869 26.8329Z" fill="#394149"></path><path d="M148.987 26.668V18.8L145.308 26.668H142.516L138.942 18.8V26.668H136.242V14.881H139.9L143.954 23.86L148.098 14.881H151.698V26.668H148.987Z" fill="#394149"></path></g></g></svg>