<svg xmlns="http://www.w3.org/2000/svg" width="140" height="30" viewBox="0 0 140 30" fill="none" id="Logo"><path d="M22.419 13.371C22.04 13.7523 21.7498 14.2125 21.569 14.7187C21.3882 15.225 21.3213 15.7649 21.373 16.3L21.355 16.282C21.4082 16.9119 21.3232 17.5457 21.1061 18.1394C20.889 18.733 20.545 19.2721 20.0981 19.7191C19.6511 20.166 19.112 20.5101 18.5183 20.7271C17.9247 20.9442 17.2908 21.0292 16.661 20.976L16.679 20.994C15.9256 20.9239 15.1689 21.0878 14.512 21.4635C13.8552 21.8392 13.3302 22.4083 13.0087 23.0933C12.6872 23.7783 12.5847 24.5457 12.7153 25.2911C12.846 26.0364 13.2033 26.7233 13.7386 27.2581C14.2739 27.7929 14.9611 28.1496 15.7065 28.2795C16.452 28.4095 17.2193 28.3063 17.904 27.9842C18.5887 27.662 19.1573 27.1366 19.5324 26.4794C19.9075 25.8222 20.0708 25.0654 20 24.312L20.019 24.33C19.9658 23.7002 20.0507 23.0663 20.2678 22.4726C20.4849 21.879 20.829 21.3399 21.2759 20.8929C21.7229 20.446 22.262 20.1019 22.8556 19.8849C23.4493 19.6678 24.0831 19.5828 24.713 19.636L24.694 19.618C25.3094 19.6733 25.9289 19.5724 26.495 19.3246C27.061 19.0768 27.5554 18.6901 27.9322 18.2004C28.309 17.7107 28.5562 17.1337 28.6506 16.5231C28.7451 15.9124 28.6839 15.2878 28.4727 14.707C28.2615 14.1263 27.9071 13.6083 27.4424 13.201C26.9777 12.7937 26.4177 12.5103 25.8143 12.3771C25.2109 12.2439 24.5836 12.2651 23.9906 12.4388C23.3976 12.6126 22.8581 12.9332 22.422 13.371H22.419Z" fill="#394149"></path><g id="logomark"><path d="M15.0412 18.6362L15.0222 18.6182C15.5575 18.6721 16.0981 18.6064 16.605 18.4258C17.1118 18.2452 17.5722 17.9543 17.9528 17.574C18.3333 17.1937 18.6247 16.7335 18.8056 16.2268C18.9866 15.7201 19.0527 15.1796 18.9992 14.6442L19.0182 14.6622C18.965 14.0323 19.05 13.3985 19.267 12.8048C19.4841 12.2112 19.8282 11.6721 20.2751 11.2251C20.7221 10.7782 21.2612 10.4341 21.8548 10.2171C22.4485 10 23.0823 9.91507 23.7122 9.96824L23.6932 9.95024C24.4467 10.021 25.2036 9.8576 25.8608 9.48234C26.5181 9.10708 27.0435 8.53821 27.3655 7.85334C27.6875 7.16848 27.7904 6.40095 27.6602 5.65544C27.53 4.90993 27.173 4.22275 26.6378 3.68761C26.1027 3.15248 25.4155 2.79544 24.67 2.66522C23.9245 2.53499 23.157 2.6379 22.4721 2.95992C21.7872 3.28193 21.2184 3.80738 20.8431 4.46459C20.4678 5.12179 20.3044 5.87876 20.3752 6.63224L20.3572 6.61324C20.4105 7.24313 20.3257 7.87707 20.1087 8.47079C19.8917 9.06451 19.5476 9.6037 19.1007 10.0507C18.6537 10.4976 18.1145 10.8417 17.5208 11.0587C16.927 11.2757 16.2931 11.3605 15.6632 11.3072L15.6812 11.3262C15.1459 11.2723 14.6052 11.338 14.0984 11.5186C13.5916 11.6991 13.1312 11.9901 12.7506 12.3704C12.37 12.7507 12.0787 13.2109 11.8977 13.7176C11.7168 14.2243 11.6507 14.7648 11.7042 15.3002L11.6862 15.2822C11.7392 15.912 11.6541 16.5458 11.437 17.1394C11.2198 17.7329 10.8758 18.272 10.4289 18.7189C9.98194 19.1658 9.4429 19.5098 8.84934 19.727C8.25578 19.9441 7.62199 20.0292 6.99218 19.9762L7.01018 19.9942C6.2567 19.9234 5.49973 20.0868 4.84252 20.4621C4.18532 20.8374 3.65987 21.4062 3.33786 22.0911C3.01584 22.776 2.91292 23.5435 3.04315 24.289C3.17338 25.0345 3.53042 25.7217 4.06555 26.2568C4.60069 26.792 5.28787 27.149 6.03338 27.2792C6.77889 27.4094 7.54642 27.3065 8.23129 26.9845C8.91615 26.6625 9.48502 26.1371 9.86028 25.4799C10.2356 24.8226 10.399 24.0657 10.3282 23.3122L10.3472 23.3302C10.294 22.7003 10.379 22.0665 10.5961 21.4728C10.8131 20.8792 11.1572 20.3401 11.6041 19.8931C12.0511 19.4462 12.5902 19.1021 13.1838 18.8851C13.7775 18.668 14.4113 18.583 15.0412 18.6362Z" fill="#394149"></path><path d="M8.34021 16.6289C8.71923 16.2477 9.00941 15.7875 9.19005 15.2812C9.37069 14.7749 9.43733 14.2349 9.38521 13.6999L9.4042 13.7179C9.351 13.0879 9.43596 12.4538 9.65317 11.86C9.87038 11.2662 10.2146 10.727 10.6618 10.28C11.109 9.83306 11.6483 9.48907 12.2422 9.27212C12.8361 9.05516 13.4702 8.97046 14.1002 9.02394L14.0812 9.00594C14.8344 9.07651 15.5911 8.91302 16.248 8.53778C16.9049 8.16255 17.43 7.59382 17.7519 6.90917C18.0737 6.22451 18.1765 5.45726 18.0463 4.71203C17.9161 3.9668 17.5591 3.27988 17.0242 2.74494C16.4893 2.21 15.8023 1.85308 15.0571 1.72286C14.3119 1.59263 13.5446 1.69545 12.86 2.01727C12.1753 2.33909 11.6066 2.86426 11.2314 3.52116C10.8561 4.17806 10.6926 4.93472 10.7632 5.68794L10.7452 5.66994C10.7984 6.29979 10.7134 6.93366 10.4963 7.5273C10.2792 8.12094 9.93523 8.66005 9.48827 9.10701C9.04132 9.55397 8.5022 9.898 7.90856 10.115C7.31492 10.3321 6.68106 10.4171 6.05121 10.3639L6.06921 10.3819C5.45378 10.3267 4.83437 10.4278 4.26839 10.6757C3.70241 10.9236 3.20816 11.3104 2.83145 11.8002C2.45474 12.2899 2.20776 12.8669 2.11338 13.4775C2.01901 14.0882 2.0803 14.7128 2.29157 15.2934C2.50284 15.8741 2.85727 16.392 3.322 16.7992C3.78673 17.2065 4.34673 17.4898 4.95011 17.623C5.55348 17.7561 6.18071 17.7348 6.77368 17.5611C7.36664 17.3873 7.90614 17.0667 8.3422 16.6289H8.34021Z" fill="#394149"></path></g><g id="logotype"><path d="M39.3164 6.65479H42.2864V21.1078H39.3164V6.65479Z" fill="#394149"></path><path d="M43.9689 16.1591C43.9648 15.1205 44.269 14.1039 44.843 13.2383C45.417 12.3727 46.235 11.6969 47.1934 11.2966C48.1518 10.8962 49.2074 10.7893 50.2266 10.9894C51.2458 11.1895 52.1827 11.6875 52.9186 12.4205C53.6545 13.1534 54.1563 14.0883 54.3605 15.1067C54.5647 16.1251 54.462 17.1812 54.0655 18.1412C53.669 19.1011 52.9965 19.9219 52.1332 20.4993C51.2698 21.0768 50.2546 21.3851 49.2159 21.3851C48.5265 21.393 47.8424 21.2633 47.2036 21.0037C46.5648 20.7441 45.9842 20.3598 45.4957 19.8733C45.0071 19.3867 44.6205 18.8076 44.3584 18.1699C44.0962 17.5322 43.9638 16.8486 43.9689 16.1591ZM51.4929 16.1591C51.4805 15.7114 51.3364 15.2773 51.0787 14.911C50.8209 14.5448 50.4609 14.2626 50.0437 14.0999C49.6264 13.9371 49.1705 13.9009 48.7328 13.9959C48.2951 14.0909 47.8951 14.3127 47.5828 14.6338C47.2706 14.9548 47.0598 15.3608 46.9771 15.801C46.8943 16.2411 46.943 16.6959 47.1173 17.1085C47.2916 17.5211 47.5836 17.8731 47.9568 18.1206C48.3301 18.3681 48.7681 18.5001 49.2159 18.5001C49.5226 18.5083 49.8277 18.4528 50.112 18.3372C50.3962 18.2216 50.6534 18.0484 50.8673 17.8285C51.0812 17.6085 51.2473 17.3466 51.3549 17.0593C51.4626 16.772 51.5096 16.4655 51.4929 16.1591Z" fill="#394149"></path><path d="M66.3009 11.2088V20.6088C66.3009 23.9348 63.7069 25.3408 61.0739 25.3408C60.1469 25.4102 59.2186 25.2229 58.3909 24.7996C57.5633 24.3762 56.8682 23.7331 56.3819 22.9408L58.9159 21.4758C59.1203 21.8888 59.446 22.2295 59.8493 22.4524C60.2527 22.6752 60.7145 22.7696 61.1729 22.7228C61.4659 22.7634 61.7643 22.7376 62.046 22.6473C62.3276 22.557 62.5854 22.4045 62.8002 22.2012C63.015 21.9978 63.1813 21.7488 63.2869 21.4724C63.3924 21.1961 63.4344 20.8996 63.4099 20.6048V19.6998C63.0621 20.1253 62.6195 20.4634 62.1174 20.6869C61.6153 20.9104 61.0679 21.0131 60.5189 20.9868C59.2127 20.9456 57.9738 20.3978 57.0644 19.4592C56.155 18.5207 55.6465 17.2651 55.6465 15.9583C55.6465 14.6515 56.155 13.3959 57.0644 12.4574C57.9738 11.5188 59.2127 10.971 60.5189 10.9298C61.0679 10.9035 61.6153 11.0062 62.1174 11.2297C62.6195 11.4532 63.0621 11.7913 63.4099 12.2168V11.2068L66.3009 11.2088ZM63.4109 15.9598C63.4309 15.4812 63.3071 15.0075 63.0556 14.5998C62.8041 14.192 62.4363 13.8689 61.9996 13.672C61.5629 13.475 61.0773 13.4133 60.6052 13.4947C60.1331 13.5761 59.6962 13.7969 59.3506 14.1288C59.0051 14.4606 58.7668 14.8882 58.6663 15.3566C58.5659 15.825 58.6079 16.3128 58.7871 16.7571C58.9662 17.2014 59.2742 17.582 59.6714 17.8498C60.0686 18.1176 60.5369 18.2604 61.0159 18.2598C61.328 18.2816 61.6411 18.2378 61.9352 18.1312C62.2293 18.0246 62.4978 17.8575 62.7234 17.6409C62.949 17.4242 63.1268 17.1627 63.2452 16.8731C63.3636 16.5836 63.4201 16.2725 63.4109 15.9598Z" fill="#394149"></path><path d="M67.9826 16.1591C67.9785 15.1205 68.2826 14.1039 68.8567 13.2383C69.4307 12.3727 70.2487 11.6969 71.2071 11.2966C72.1655 10.8962 73.2211 10.7893 74.2403 10.9894C75.2595 11.1895 76.1964 11.6875 76.9323 12.4205C77.6682 13.1534 78.17 14.0883 78.3742 15.1067C78.5784 16.1251 78.4757 17.1812 78.0792 18.1412C77.6827 19.1011 77.0102 19.9219 76.1469 20.4993C75.2835 21.0768 74.2683 21.3851 73.2296 21.3851C72.5402 21.393 71.856 21.2633 71.2173 21.0037C70.5785 20.7441 69.9979 20.3598 69.5094 19.8733C69.0208 19.3867 68.6342 18.8076 68.3721 18.1699C68.1099 17.5322 67.9775 16.8486 67.9826 16.1591ZM75.5066 16.1591C75.4942 15.7114 75.3501 15.2773 75.0924 14.911C74.8346 14.5448 74.4746 14.2626 74.0574 14.0999C73.6401 13.9371 73.1841 13.9009 72.7465 13.9959C72.3088 14.0909 71.9088 14.3127 71.5965 14.6338C71.2843 14.9548 71.0735 15.3608 70.9907 15.801C70.9079 16.2411 70.9567 16.6959 71.131 17.1085C71.3053 17.5211 71.5973 17.8731 71.9705 18.1206C72.3438 18.3681 72.7817 18.5001 73.2296 18.5001C73.5363 18.5083 73.8414 18.4528 74.1256 18.3372C74.4099 18.2216 74.6671 18.0484 74.881 17.8285C75.0949 17.6085 75.261 17.3466 75.3686 17.0593C75.4763 16.772 75.5233 16.4655 75.5066 16.1591Z" fill="#394149"></path><path d="M79.8613 8.55593C79.8613 8.20348 79.9658 7.85895 80.1616 7.56591C80.3574 7.27286 80.6358 7.04445 80.9614 6.90958C81.287 6.7747 81.6453 6.73941 81.991 6.80817C82.3366 6.87693 82.6542 7.04665 82.9034 7.29587C83.1526 7.54508 83.3223 7.8626 83.3911 8.20828C83.4598 8.55395 83.4245 8.91225 83.2897 9.23787C83.1548 9.56349 82.9264 9.8418 82.6333 10.0376C82.3403 10.2334 81.9958 10.3379 81.6433 10.3379C81.1722 10.3332 80.7216 10.144 80.3884 9.81081C80.0553 9.47763 79.866 9.02709 79.8613 8.55593ZM80.1613 11.2089H83.1323V21.1089H80.1573L80.1613 11.2089Z" fill="#394149"></path><path d="M95.9557 16.1588C95.99 16.8131 95.8947 17.4677 95.6751 18.085C95.4556 18.7023 95.1162 19.2701 94.6764 19.7558C94.2367 20.2414 93.7052 20.6354 93.1127 20.915C92.5201 21.1945 91.8782 21.3542 91.2237 21.3848C90.6733 21.4148 90.1232 21.322 89.6131 21.1131C89.103 20.9041 88.6459 20.5843 88.2747 20.1768V25.0678H85.3047V11.2088H88.2747V12.1388C88.646 11.7316 89.1033 11.412 89.6133 11.2033C90.1234 10.9945 90.6734 10.9018 91.2237 10.9318C91.8783 10.9623 92.5204 11.1219 93.1131 11.4015C93.7058 11.6811 94.2373 12.0751 94.6771 12.5609C95.1169 13.0467 95.4563 13.6147 95.6757 14.2322C95.8951 14.8496 95.9903 15.5044 95.9557 16.1588ZM92.9857 16.1588C92.9741 15.6955 92.8261 15.2459 92.5602 14.8662C92.2943 14.4866 91.9224 14.1938 91.491 14.0246C91.0595 13.8553 90.5877 13.817 90.1346 13.9146C89.6815 14.0121 89.2673 14.2411 88.9437 14.5729C88.6201 14.9048 88.4016 15.3246 88.3155 15.7801C88.2294 16.2355 88.2795 16.7061 88.4596 17.1332C88.6396 17.5603 88.9417 17.9247 89.3279 18.181C89.7141 18.4372 90.1672 18.5739 90.6307 18.5738C90.9489 18.588 91.2665 18.5347 91.5627 18.4175C91.8588 18.3004 92.1269 18.1219 92.3492 17.8939C92.5716 17.6658 92.7432 17.3934 92.8529 17.0944C92.9626 16.7954 93.0079 16.4765 92.9857 16.1588Z" fill="#394149"></path><path d="M105.12 18.1379C105.12 20.4149 103.141 21.3849 101.003 21.3849C100.139 21.4631 99.2718 21.2805 98.5129 20.8604C97.754 20.4404 97.1386 19.8024 96.7461 19.0289L99.3191 17.5639C99.4232 17.9214 99.6468 18.2325 99.9525 18.445C100.258 18.6576 100.628 18.7589 100.999 18.7319C101.711 18.7319 102.068 18.5139 102.068 18.1189C102.068 17.0289 97.1971 17.6039 97.1971 14.1789C97.1971 12.0199 99.0191 10.9319 101.078 10.9319C101.852 10.9074 102.618 11.091 103.297 11.4635C103.976 11.8361 104.543 12.3839 104.938 13.0499L102.404 14.4159C102.293 14.1566 102.108 13.9357 101.872 13.7808C101.636 13.6259 101.36 13.5439 101.078 13.5449C100.563 13.5449 100.246 13.7449 100.246 14.0989C100.25 15.2279 105.12 14.4749 105.12 18.1379Z" fill="#394149"></path><path d="M115.971 11.209V21.109H113.001V20.178C112.658 20.5888 112.223 20.9125 111.731 21.1225C111.239 21.3325 110.705 21.4228 110.171 21.386C108.171 21.386 106.471 19.961 106.471 17.286V11.209H109.441V16.851C109.416 17.0868 109.443 17.3252 109.52 17.5495C109.596 17.7739 109.721 17.9789 109.885 18.1502C110.049 18.3215 110.248 18.455 110.469 18.5415C110.689 18.628 110.926 18.6654 111.163 18.651C112.252 18.651 113.004 18.018 113.004 16.612V11.212L115.971 11.209Z" fill="#394149"></path><path d="M132.999 15.0302V21.1082H130.029V15.2872C130.029 14.2972 129.554 13.6642 128.604 13.6642C127.614 13.6642 127.059 14.3572 127.059 15.5252V21.1082H124.09V15.2872C124.09 14.2972 123.615 13.6642 122.664 13.6642C121.674 13.6642 121.12 14.3572 121.12 15.5252V21.1082H118.15V11.2082H121.12V12.1182C121.428 11.7145 121.832 11.3943 122.295 11.187C122.759 10.9796 123.267 10.8917 123.773 10.9312C124.281 10.9063 124.787 11.0136 125.242 11.2425C125.696 11.4713 126.083 11.8141 126.366 12.2372C126.695 11.7945 127.131 11.4425 127.633 11.2141C128.135 10.9857 128.687 10.8884 129.237 10.9312C131.51 10.9322 132.999 12.5552 132.999 15.0302Z" fill="#394149"></path><path d="M135.513 11.1482C136.73 11.1482 137.717 10.1614 137.717 8.94423C137.717 7.72699 136.73 6.74023 135.513 6.74023C134.296 6.74023 133.309 7.72699 133.309 8.94423C133.309 10.1614 134.296 11.1482 135.513 11.1482Z" fill="#394149"></path></g></svg>