<svg xmlns="http://www.w3.org/2000/svg" width="152" height="19" viewBox="0 0 152 19" fill="none" id="Logo"><g id="logotype"><path d="M75.693 16.3739H70.573V2.68586H75.693V16.3739ZM71.073 15.8739H75.193V3.18586H71.073V15.8739ZM82.817 16.3739H77.8V2.68586H88.282C89.7836 2.56426 91.279 2.98583 92.496 3.87386C93.0199 4.35317 93.426 4.94705 93.6825 5.60915C93.9391 6.27126 94.0392 6.98369 93.975 7.69086C94.0498 8.91283 93.6609 10.1181 92.886 11.0659C91.969 12.1179 90.443 12.6599 88.351 12.6789C87.824 12.6929 83.875 12.6789 82.82 12.6789L82.817 16.3739ZM78.297 15.8739H82.317V12.1739H82.568C82.619 12.1739 87.746 12.1899 88.339 12.1739C90.288 12.1569 91.689 11.6739 92.508 10.7309C93.1978 9.87331 93.5404 8.78801 93.468 7.68986C93.5295 7.05623 93.4442 6.41695 93.2188 5.8216C92.9933 5.22625 92.6338 4.69083 92.168 4.25686C91.0396 3.44696 89.659 3.06679 88.275 3.18486H78.3L78.297 15.8739ZM87.22 9.60386H82.283V5.87786H87.253C87.6053 5.82918 87.9642 5.8703 88.2963 5.99739C88.6285 6.12449 88.9232 6.33344 89.153 6.60486C89.3615 6.9518 89.4598 7.35384 89.435 7.75786C89.4537 8.13296 89.3727 8.50633 89.2 8.83986C88.9629 9.12574 88.6562 9.34581 88.3094 9.47891C87.9627 9.61201 87.5875 9.65366 87.22 9.59986V9.60386ZM82.783 9.10386H87.22C88.04 9.10386 88.548 8.93286 88.773 8.58086C88.8969 8.32501 88.953 8.04162 88.936 7.75786C88.9579 7.45992 88.8933 7.162 88.75 6.89986L88.744 6.89086C88.506 6.54086 88.033 6.37786 87.253 6.37786H82.783V9.10386ZM103.1 16.5759C98.61 16.5759 95.93 15.4609 94.909 13.1679C94.7419 12.725 94.6285 12.2637 94.571 11.7939L94.527 11.5059H99.869L99.904 11.7159C99.9451 11.9291 100.036 12.1298 100.168 12.3019C100.379 12.5569 101.083 12.9849 103.419 12.9849C106.227 12.9849 106.227 12.4919 106.227 12.2269C106.227 11.7799 105.902 11.6269 103.612 11.3829L103.177 11.3419C102.315 11.2609 101.225 11.1579 100.727 11.1149C96.527 10.7349 94.652 9.42986 94.652 6.88486C94.652 4.21186 97.843 2.48486 102.782 2.48486C106.811 2.48486 109.407 3.54686 110.496 5.64386C110.754 6.13164 110.928 6.65985 111.009 7.20586L111.044 7.48686H105.696L105.674 7.26086C105.653 7.08424 105.578 6.91855 105.458 6.78686C105.258 6.51886 104.626 6.07586 102.664 6.07586C100.255 6.07586 99.923 6.38386 99.923 6.71586C99.923 7.15886 100.684 7.31586 103.123 7.57686C104.14 7.65986 105.775 7.82786 106.335 7.89586C109.856 8.27786 111.427 9.55086 111.427 12.0249C111.428 14.0999 109.983 16.5759 103.1 16.5759ZM95.111 12.0059C95.1611 12.3357 95.2473 12.6589 95.368 12.9699C96.298 15.0589 98.828 16.0759 103.1 16.0759C106.672 16.0759 110.931 15.3759 110.931 12.0249C110.931 9.83186 109.541 8.74586 106.282 8.39286C105.722 8.32486 104.097 8.15786 103.082 8.07386C100.482 7.79186 99.425 7.64186 99.425 6.71586C99.425 5.75786 100.564 5.57586 102.666 5.57586C104.327 5.57586 105.4 5.87586 105.855 6.48086C105.979 6.62991 106.073 6.80181 106.131 6.98686H110.465C110.378 6.60011 110.24 6.22655 110.055 5.87586C109.055 3.95686 106.612 2.98486 102.784 2.98486C98.149 2.98486 95.154 4.51586 95.154 6.88486C95.154 9.14486 96.835 10.2609 100.773 10.6169C101.273 10.6599 102.362 10.7629 103.226 10.8449L103.664 10.8859C105.791 11.1099 106.729 11.2499 106.729 12.2269C106.729 13.2789 105.516 13.4849 103.421 13.4849C101.483 13.4849 100.259 13.1939 99.786 12.6209C99.6402 12.4382 99.5302 12.2295 99.462 12.0059H95.111ZM120.927 16.5589C115.707 16.5589 112.827 14.4479 112.827 10.6139V2.68586H117.879V10.6139C117.879 11.9289 119.056 12.6829 121.107 12.6829C123.067 12.6829 124.284 11.8959 124.284 10.6309V2.68586H129.284V11.0339C129.289 14.5449 126.24 16.5589 120.924 16.5589H120.927ZM113.327 3.18586V10.6139C113.327 15.3519 118.085 16.0589 120.927 16.0589C123.865 16.0589 128.792 15.4059 128.792 11.0339V3.18586H124.792V10.6309C124.792 12.1809 123.348 13.1829 121.115 13.1829C118.781 13.1829 117.387 12.2229 117.387 10.6139V3.18586H113.327ZM150.472 16.3739H145.704V10.1939L143 16.3739H138.841L136.165 10.2059V16.3739H131.38V2.68586H137.674L140.944 10.2329L144.372 2.68586H150.478L150.472 16.3739ZM146.204 15.8739H149.972V3.18586H144.69L140.928 11.4649L137.342 3.18586H131.876V15.8739H135.661V7.79986L139.161 15.8769H142.661L146.198 7.81186L146.204 15.8739ZM6.054 2.93586H1.5V16.1239H14.084V12.6129H6.054V2.93586ZM23.276 2.63586C17.463 2.63586 14.406 5.39086 14.406 9.43586C14.406 14.0059 17.615 16.3239 23.276 16.3239C29.508 16.3239 32.129 13.6359 32.129 9.43586C32.129 5.17086 29.172 2.63386 23.276 2.63386V2.63586ZM23.259 6.06286C23.6547 6.061 24.0502 6.08404 24.443 6.13186L19.352 11.2229C19.1111 10.678 18.9936 10.0865 19.008 9.49086C19.008 7.42186 20.05 6.06086 23.259 6.06086V6.06286ZM23.276 12.9509C22.8947 12.9526 22.5137 12.9312 22.135 12.8869L27.235 7.78686C27.4669 8.32276 27.5779 8.90319 27.56 9.48686C27.56 11.4999 26.6 12.9489 23.276 12.9489V12.9509ZM41.152 11.1509H45.839C45.77 11.4762 45.6262 11.7809 45.419 12.0409C44.4473 12.8325 43.2072 13.2177 41.958 13.1159C41.3292 13.1832 40.6934 13.1145 40.0935 12.9145C39.4936 12.7146 38.9436 12.388 38.481 11.9569C38.0071 11.2618 37.782 10.427 37.842 9.58786C37.7653 8.7086 38.0101 7.83138 38.531 7.11886C39.186 6.37886 40.295 6.05986 41.925 6.05986C42.9621 5.97399 43.9979 6.24034 44.865 6.81586C45.1383 7.03294 45.3426 7.32477 45.453 7.65586H49.8C49.7684 7.11033 49.6372 6.57519 49.413 6.07686C48.372 3.95986 45.952 2.69986 41.837 2.69986C38.258 2.69986 35.856 3.79186 34.529 5.43886C33.6526 6.62822 33.2027 8.0783 33.252 9.55486C33.1953 11.0649 33.6336 12.552 34.5 13.7899C35.811 15.4899 38.146 16.3259 40.952 16.3259C42.8175 16.456 44.6703 15.9335 46.193 14.8479L46.311 16.1239H49.922V8.31186H41.152V11.1509ZM60.171 2.63286C54.359 2.63286 51.301 5.38786 51.301 9.43286C51.301 14.0029 54.509 16.3209 60.171 16.3209C66.404 16.3209 69.025 13.6329 69.025 9.43286C69.025 5.17086 66.068 2.63386 60.171 2.63386V2.63286ZM60.155 6.05986C60.5403 6.05872 60.9253 6.08076 61.308 6.12586L56.237 11.1999C56.0036 10.661 55.89 10.078 55.904 9.49086C55.9 7.42186 56.946 6.05986 60.155 6.05986ZM60.171 12.9479C59.7796 12.9496 59.3885 12.9268 59 12.8799L64.117 7.76186C64.3577 8.30489 64.4729 8.89518 64.454 9.48886C64.456 11.4999 63.5 12.9489 60.171 12.9489V12.9479Z" fill="#394149"></path></g></svg>